<?xml version="1.0" encoding="UTF-8" standalone="no"?>
<!-- Created with Inkscape (http://www.inkscape.org/) -->

<svg
   xmlns:svg="http://www.w3.org/2000/svg"
   xmlns="http://www.w3.org/2000/svg"
   version="1.1"
   width="480.99997"
   height="756"
   id="svg2"
   xml:space="preserve"><defs
     id="defs6" /><g
     transform="matrix(1.25,0,0,-1.25,0,755.99999)"
     id="g12"><g
       id="g14"><path
         d="m 26.188,558.003 12.96,0 c 0.383,0 0.739,0.352 0.739,0.734 l 0,1.665 c 0,0.386 -0.258,0.64 -0.739,0.64 l -12.96,0 c -0.415,0 -0.672,-0.254 -0.672,-0.64 l 0,-1.665 c 0,-0.445 0.257,-0.734 0.672,-0.734"
         id="path16"
         style="fill:#000000;fill-opacity:1;fill-rule:nonzero;stroke:none" /><path
         d="m 56.223,565.874 -6.145,0 0,3.168 c 0,1.535 -0.129,2.176 -1.246,2.176 -0.832,0 -1.219,-0.449 -1.219,-1.313 l 0,-0.832 0,-3.199 -1.726,0 c -1.504,0 -2.145,-0.094 -2.145,-1.121 0,-0.766 0.387,-1.086 1.25,-1.086 l 2.621,0 0,-5.215 0,-0.48 c 0,-1.442 0.035,-2.688 0.578,-3.617 0.895,-1.567 2.559,-2.336 4.961,-2.336 1.473,0 3.102,0.414 5.055,1.183 1.152,0.45 1.727,0.895 1.727,1.633 0,0.574 -0.512,1.121 -1.086,1.121 -1.25,0 -3.328,-1.664 -5.856,-1.664 -2.754,0 -2.945,1.664 -2.945,4.16 l 0,5.215 6.336,0 c 0.863,0 1.312,0.352 1.312,1.086 0,0.801 -0.48,1.121 -1.472,1.121"
         id="path18"
         style="fill:#000000;fill-opacity:1;fill-rule:nonzero;stroke:none" /><path
         d="m 65.328,554.515 -0.32,0 c -1.278,0 -1.824,-0.192 -1.824,-1.09 0,-0.734 0.418,-1.117 1.25,-1.117 l 4.16,0 c 0.926,0 1.246,0.222 1.246,1.117 0,0.867 -0.414,1.121 -1.504,1.121 -0.191,0 -0.414,-0.031 -0.672,-0.031 l 0,6.496 c 0,2.336 2.176,3.742 4.066,3.742 2.047,0 3.293,-1.246 3.293,-3.742 l 0,-6.496 -0.605,0 c -1.121,0 -1.535,-0.223 -1.535,-1.09 0,-0.895 0.316,-1.117 1.246,-1.117 l 4.16,0 c 0.832,0 1.25,0.383 1.25,1.117 0,0.801 -0.48,1.09 -1.473,1.09 l -0.671,0 0,7.07 c 0,3.617 -2.145,5.57 -5.122,5.57 -1.632,0 -3.074,-0.703 -4.578,-2.113 l 0,7.074 c 0,0.383 -0.285,0.637 -0.894,0.637 l -2.367,0 c -0.832,0 -1.25,-0.383 -1.25,-1.117 0,-0.801 0.449,-1.09 1.441,-1.09 0.223,0 0.48,-0.031 0.703,-0.031 l 0,-16"
         id="path20"
         style="fill:#000000;fill-opacity:1;fill-rule:nonzero;stroke:none" /><path
         d="m 85.25,560.882 c 0.609,2.594 2.625,4.129 5.379,4.129 2.527,0 4.512,-1.633 4.797,-4.129 l -10.176,0 m -0.062,-2.047 10.496,0 c 1.918,0 2.589,0 2.589,1.473 0,3.488 -2.91,6.847 -7.644,6.847 -4.832,0 -8.16,-3.105 -8.16,-7.585 0,-4.672 3.008,-7.649 7.84,-7.649 2.109,0 4.382,0.512 6.527,1.57 0.926,0.446 1.375,0.926 1.375,1.567 0,0.578 -0.481,1.023 -1.086,1.023 -1.41,0 -3.426,-1.949 -6.594,-1.949 -3.23,0 -5.183,1.695 -5.343,4.703"
         id="path22"
         style="fill:#000000;fill-opacity:1;fill-rule:nonzero;stroke:none" /><path
         d="m 108.18,554.515 0,6.465 c 2.082,2.367 3.84,3.613 5.57,3.613 1.215,0 1.887,-0.957 2.719,-0.957 0.672,0 1.375,0.703 1.375,1.469 0,1.152 -1.153,2.019 -3.102,2.019 -2.496,0 -4.609,-1.219 -6.562,-3.683 l 0,2.656 c 0,0.449 -0.285,0.64 -0.864,0.64 l -3.55,0 c -0.832,0 -1.25,-0.351 -1.25,-1.085 0,-0.801 0.449,-1.122 1.472,-1.122 l 0.801,0 1.055,0 0,-10.015 -2.75,0 c -0.864,0 -1.313,-0.352 -1.313,-1.09 0,-0.734 0.449,-1.117 1.281,-1.117 l 10.208,0 c 0.925,0 1.281,0.222 1.281,1.117 0,0.77 -0.387,1.09 -1.188,1.09 l -5.183,0"
         id="path24"
         style="fill:#000000;fill-opacity:1;fill-rule:nonzero;stroke:none" /><path
         d="m 134.664,561.011 0,-7.137 c 0,-1.023 0.445,-1.566 1.313,-1.566 l 1.886,0 c 0.735,0 1.121,0.383 1.121,1.117 0,0.898 -0.449,1.09 -1.632,1.09 l -0.29,0 0,7.07 c 0,3.649 -0.96,5.57 -3.839,5.57 -1.504,0 -2.625,-0.64 -3.489,-1.921 -0.445,1.281 -1.406,1.921 -2.847,1.921 -1.215,0 -2.176,-0.418 -3.008,-1.343 -0.063,0.765 -0.223,0.925 -0.895,0.925 l -2.402,0 c -0.832,0 -1.215,-0.351 -1.215,-1.085 0,-0.801 0.449,-1.122 1.442,-1.122 l 0.703,0 0,-10.015 -0.321,0 c -1.281,0 -1.824,-0.192 -1.824,-1.09 0,-0.734 0.383,-1.117 1.215,-1.117 l 4.16,0 c 0.93,0 1.281,0.222 1.281,1.117 0,0.867 -0.418,1.121 -1.503,1.121 -0.192,0 -0.418,-0.031 -0.672,-0.031 l 0,8.609 c 0.574,1.086 1.343,1.629 2.304,1.629 1.184,0 2.047,-0.926 2.047,-2.527 l 0,-1.215 0,-6.594 0,-0.414 c 0,-1.215 0.063,-1.695 1.09,-1.695 l 1.981,0 c 0.738,0 1.089,0.383 1.089,1.117 0,0.898 -0.449,1.09 -1.632,1.09 l -0.289,0 0,6.496 c 0,2.496 1.089,3.742 2.531,3.742 1.566,0 1.695,-1.375 1.695,-3.742"
         id="path26"
         style="fill:#000000;fill-opacity:1;fill-rule:nonzero;stroke:none" /><path
         d="m 149.656,554.515 0,11.582 c 0,0.387 -0.289,0.64 -0.894,0.64 l -4.578,0 c -0.832,0 -1.246,-0.351 -1.246,-1.085 0,-0.739 0.449,-1.122 1.312,-1.122 l 3.039,0 0,-10.015 -4.769,0 c -0.864,0 -1.309,-0.352 -1.309,-1.09 0,-0.734 0.414,-1.117 1.246,-1.117 l 12.129,0 c 0.926,0 1.277,0.222 1.277,1.117 0,0.77 -0.383,1.09 -1.183,1.09 l -5.024,0 m -2.91,16.734 c 0,-1.277 0.32,-1.535 1.633,-1.535 1.504,0 1.598,0.352 1.598,1.984 0,1.633 -0.161,2.114 -1.598,2.114 -1.441,0 -1.633,-0.481 -1.633,-2.563"
         id="path28"
         style="fill:#000000;fill-opacity:1;fill-rule:nonzero;stroke:none" /><path
         d="m 161.645,554.515 -0.321,0 c -1.281,0 -1.824,-0.192 -1.824,-1.09 0,-0.734 0.414,-1.117 1.312,-1.117 l 0.833,0 2.847,0 c 1.184,0 1.664,0.062 1.664,1.117 0,0.867 -0.418,1.121 -1.504,1.121 -0.191,0 -0.418,-0.031 -0.672,-0.031 l 0,6.496 c 0,2.336 2.176,3.742 4.063,3.742 2.047,0 3.199,-1.246 3.199,-3.742 l 0,-6.496 -0.512,0 c -1.121,0 -1.566,-0.223 -1.566,-1.09 0,-1.023 0.445,-1.117 1.566,-1.117 l 3.458,0 c 1.121,0 1.664,0.222 1.664,1.117 0,0.801 -0.481,1.09 -1.473,1.09 l -0.703,0 0,7.07 c 0,3.617 -2.114,5.57 -5.09,5.57 -1.629,0 -3.07,-0.703 -4.574,-2.113 l 0,1.055 c 0,0.387 -0.289,0.64 -0.899,0.64 l -1.468,0 c -1.442,0 -2.145,0 -2.145,-1.085 0,-0.801 0.445,-1.122 1.438,-1.122 l 0.707,0 0,-10.015"
         id="path30"
         style="fill:#000000;fill-opacity:1;fill-rule:nonzero;stroke:none" /><path
         d="m 190.27,554.292 0.16,-0.961 c 0.129,-0.672 0.511,-1.023 1.086,-1.023 l 2.464,0 c 0.832,0 1.25,0.383 1.25,1.117 0,0.93 -0.546,1.09 -1.855,1.09 l -0.801,0 0,7.07 c 0,3.777 -1.855,5.539 -5.855,5.539 -3.524,0 -5.824,-1.121 -5.824,-2.211 0,-0.797 0.48,-1.312 1.054,-1.312 1.215,0 2.496,1.312 4.703,1.312 2.403,0 3.52,-1.117 3.52,-3.519 l 0,-0.094 c -1.277,0.32 -2.496,0.48 -3.711,0.48 -4.641,0 -7.231,-1.953 -7.231,-5.187 0,-2.75 2.047,-4.672 5.184,-4.672 2.145,0 4.16,0.832 5.856,2.371 m -0.098,4.926 0,-1.695 c 0,-1.407 -2.559,-3.2 -5.375,-3.2 -1.824,0 -3.07,1.055 -3.07,2.43 0,1.762 1.824,3.008 5.152,3.008 1.148,0 2.238,-0.191 3.293,-0.543"
         id="path32"
         style="fill:#000000;fill-opacity:1;fill-rule:nonzero;stroke:none" /><path
         d="m 210.223,565.874 -6.145,0 0,3.168 c 0,1.535 -0.129,2.176 -1.246,2.176 -0.832,0 -1.219,-0.449 -1.219,-1.313 l 0,-0.832 0,-3.199 -1.726,0 c -1.504,0 -2.145,-0.094 -2.145,-1.121 0,-0.766 0.387,-1.086 1.25,-1.086 l 2.621,0 0,-5.215 0,-0.48 c 0,-1.442 0.035,-2.688 0.578,-3.617 0.895,-1.567 2.559,-2.336 4.961,-2.336 1.473,0 3.102,0.414 5.055,1.183 1.152,0.45 1.727,0.895 1.727,1.633 0,0.574 -0.512,1.121 -1.086,1.121 -1.25,0 -3.328,-1.664 -5.856,-1.664 -2.754,0 -2.945,1.664 -2.945,4.16 l 0,5.215 6.336,0 c 0.863,0 1.312,0.352 1.312,1.086 0,0.801 -0.48,1.121 -1.472,1.121"
         id="path34"
         style="fill:#000000;fill-opacity:1;fill-rule:nonzero;stroke:none" /><path
         d="m 233.379,559.507 c 0,4.32 -3.203,7.582 -8.16,7.582 -4.961,0 -8.196,-3.23 -8.196,-7.582 0,-4.352 3.235,-7.586 8.196,-7.586 4.957,0 8.16,3.234 8.16,7.586 m -8.16,-5.41 c -3.235,0 -5.473,2.305 -5.473,5.41 0,3.102 2.238,5.441 5.473,5.441 3.23,0 5.469,-2.339 5.469,-5.441 0,-3.137 -2.239,-5.41 -5.469,-5.41"
         id="path36"
         style="fill:#000000;fill-opacity:1;fill-rule:nonzero;stroke:none" /><path
         d="m 242.93,554.515 0,6.465 c 2.082,2.367 3.84,3.613 5.57,3.613 1.215,0 1.887,-0.957 2.719,-0.957 0.672,0 1.375,0.703 1.375,1.469 0,1.152 -1.153,2.019 -3.102,2.019 -2.496,0 -4.609,-1.219 -6.562,-3.683 l 0,2.656 c 0,0.449 -0.285,0.64 -0.864,0.64 l -3.55,0 c -0.832,0 -1.25,-0.351 -1.25,-1.085 0,-0.801 0.449,-1.122 1.472,-1.122 l 0.801,0 1.055,0 0,-10.015 -2.75,0 c -0.864,0 -1.313,-0.352 -1.313,-1.09 0,-0.734 0.449,-1.117 1.281,-1.117 l 10.208,0 c 0.925,0 1.281,0.222 1.281,1.117 0,0.77 -0.387,1.09 -1.188,1.09 l -5.183,0"
         id="path38"
         style="fill:#000000;fill-opacity:1;fill-rule:nonzero;stroke:none" /><path
         d="m 258.277,552.308 10.305,0 c 0.48,0 0.832,0.351 0.895,1.023 l 0.16,1.215 c 0,0.098 0.031,0.223 0.031,0.32 0,0.832 -0.445,1.282 -1.117,1.282 -0.672,0 -1.09,-0.45 -1.188,-1.379 l -7.133,0 1.918,1.859 c 4.067,4.031 7.395,6.399 7.395,10.109 0,3.266 -2.594,5.793 -6.082,5.793 -2.113,0 -4.191,-0.832 -5.504,-2.113 -0.48,-0.48 -0.512,-0.765 -0.512,-1.375 0,-1.086 0.16,-1.633 0.93,-1.633 1.086,0 1.309,0.93 1.695,1.442 0.703,0.929 2.016,1.504 3.328,1.504 2.016,0 3.422,-1.504 3.422,-3.746 0,-2.622 -2.625,-4.797 -6.718,-8.672 -2.207,-2.11 -3.457,-3.168 -3.457,-4.254 0,-0.961 0.543,-1.375 1.632,-1.375"
         id="path40"
         style="fill:#000000;fill-opacity:1;fill-rule:nonzero;stroke:none" /><path
         d="m 279.445,551.89 9.825,21.152 c 0.097,0.192 0.16,0.383 0.16,0.578 0,0.606 -0.543,1.055 -1.118,1.055 -0.64,0 -0.96,-0.449 -1.41,-1.375 l -9.757,-21.027 c -0.098,-0.223 -0.161,-0.446 -0.161,-0.637 0,-0.609 0.512,-1.09 1.086,-1.09 0.672,0 0.992,0.481 1.375,1.344"
         id="path42"
         style="fill:#000000;fill-opacity:1;fill-rule:nonzero;stroke:none" /><path
         d="m 64.688,518.003 12.96,0 c 0.383,0 0.739,0.352 0.739,0.734 l 0,1.665 c 0,0.386 -0.258,0.64 -0.739,0.64 l -12.96,0 c -0.415,0 -0.672,-0.254 -0.672,-0.64 l 0,-1.665 c 0,-0.445 0.257,-0.734 0.672,-0.734"
         id="path44"
         style="fill:#000000;fill-opacity:1;fill-rule:nonzero;stroke:none" /><path
         d="m 94.02,514.292 0.16,-0.961 c 0.129,-0.672 0.511,-1.023 1.086,-1.023 l 2.464,0 c 0.832,0 1.25,0.383 1.25,1.117 0,0.93 -0.546,1.09 -1.855,1.09 l -0.801,0 0,7.07 c 0,3.777 -1.855,5.539 -5.855,5.539 -3.524,0 -5.824,-1.121 -5.824,-2.211 0,-0.797 0.48,-1.312 1.054,-1.312 1.215,0 2.496,1.312 4.703,1.312 2.403,0 3.52,-1.117 3.52,-3.519 l 0,-0.094 c -1.277,0.32 -2.496,0.48 -3.711,0.48 -4.641,0 -7.231,-1.953 -7.231,-5.187 0,-2.75 2.047,-4.672 5.184,-4.672 2.145,0 4.16,0.832 5.856,2.371 m -0.098,4.926 0,-1.695 c 0,-1.407 -2.559,-3.2 -5.375,-3.2 -1.824,0 -3.07,1.055 -3.07,2.43 0,1.762 1.824,3.008 5.152,3.008 1.148,0 2.238,-0.191 3.293,-0.543"
         id="path46"
         style="fill:#000000;fill-opacity:1;fill-rule:nonzero;stroke:none" /><path
         d="m 104.18,519.316 c 0,3.101 1.984,5.152 4.929,5.152 2.911,0 4.93,-2.113 4.93,-4.992 0,-2.883 -2.082,-5.059 -4.961,-5.059 -2.785,0 -4.898,1.953 -4.898,4.899 m 10.242,-7.008 2.976,0 c 0.672,0 1.118,0.414 1.118,1.117 0,0.801 -0.446,1.09 -1.438,1.09 l -0.703,0 0,17.601 c 0,0.446 -0.289,0.637 -0.898,0.637 l -3.2,0 c -0.832,0 -1.25,-0.383 -1.25,-1.117 0,-1.027 0.672,-1.121 2.145,-1.121 l 0.832,0 0,-5.985 c -1.215,1.504 -2.942,2.239 -5.086,2.239 -4.227,0 -7.426,-3.262 -7.426,-7.391 0,-4.383 3.008,-7.457 6.946,-7.457 2.207,0 4.128,0.899 5.374,2.465 l 0,-1.281 c 0,-0.543 0.129,-0.797 0.61,-0.797"
         id="path48"
         style="fill:#000000;fill-opacity:1;fill-rule:nonzero;stroke:none" /><path
         d="m 123.43,519.316 c 0,3.101 1.984,5.152 4.929,5.152 2.911,0 4.93,-2.113 4.93,-4.992 0,-2.883 -2.082,-5.059 -4.961,-5.059 -2.785,0 -4.898,1.953 -4.898,4.899 m 10.242,-7.008 2.976,0 c 0.672,0 1.118,0.414 1.118,1.117 0,0.801 -0.446,1.09 -1.438,1.09 l -0.703,0 0,17.601 c 0,0.446 -0.289,0.637 -0.898,0.637 l -3.2,0 c -0.832,0 -1.25,-0.383 -1.25,-1.117 0,-1.027 0.672,-1.121 2.145,-1.121 l 0.832,0 0,-5.985 c -1.215,1.504 -2.942,2.239 -5.086,2.239 -4.227,0 -7.426,-3.262 -7.426,-7.391 0,-4.383 3.008,-7.457 6.946,-7.457 2.207,0 4.128,0.899 5.374,2.465 l 0,-1.281 c 0,-0.543 0.129,-0.797 0.61,-0.797"
         id="path50"
         style="fill:#000000;fill-opacity:1;fill-rule:nonzero;stroke:none" /><path
         d="m 156.379,519.507 c 0,4.32 -3.203,7.582 -8.16,7.582 -4.961,0 -8.196,-3.23 -8.196,-7.582 0,-4.352 3.235,-7.586 8.196,-7.586 4.957,0 8.16,3.234 8.16,7.586 m -8.16,-5.41 c -3.235,0 -5.473,2.305 -5.473,5.41 0,3.102 2.238,5.441 5.473,5.441 3.23,0 5.469,-2.339 5.469,-5.441 0,-3.137 -2.239,-5.41 -5.469,-5.41"
         id="path52"
         style="fill:#000000;fill-opacity:1;fill-rule:nonzero;stroke:none" /><path
         d="m 161.645,514.515 -0.321,0 c -1.281,0 -1.824,-0.192 -1.824,-1.09 0,-0.734 0.414,-1.117 1.312,-1.117 l 0.833,0 2.847,0 c 1.184,0 1.664,0.062 1.664,1.117 0,0.867 -0.418,1.121 -1.504,1.121 -0.191,0 -0.418,-0.031 -0.672,-0.031 l 0,6.496 c 0,2.336 2.176,3.742 4.063,3.742 2.047,0 3.199,-1.246 3.199,-3.742 l 0,-6.496 -0.512,0 c -1.121,0 -1.566,-0.223 -1.566,-1.09 0,-1.023 0.445,-1.117 1.566,-1.117 l 3.458,0 c 1.121,0 1.664,0.222 1.664,1.117 0,0.801 -0.481,1.09 -1.473,1.09 l -0.703,0 0,7.07 c 0,3.617 -2.114,5.57 -5.09,5.57 -1.629,0 -3.07,-0.703 -4.574,-2.113 l 0,1.055 c 0,0.387 -0.289,0.64 -0.899,0.64 l -1.468,0 c -1.442,0 -2.145,0 -2.145,-1.085 0,-0.801 0.445,-1.122 1.438,-1.122 l 0.707,0 0,-10.015"
         id="path54"
         style="fill:#000000;fill-opacity:1;fill-rule:nonzero;stroke:none" /><path
         d="m 179.867,513.425 c 0,-0.992 0.418,-1.504 1.153,-1.504 0.355,0 0.867,0.258 1.601,0.738 1.762,-0.449 3.328,-0.703 4.734,-0.703 3.907,0 6.114,1.949 6.114,4.637 0,3.074 -2.145,4.289 -6.274,4.387 -3.07,0.062 -4.863,0.222 -4.863,1.886 0,1.25 1.184,2.305 3.266,2.305 1.632,0 2.785,-0.383 3.968,-1.441 0.926,-0.832 1.246,-1.633 1.95,-1.633 0.769,0 1.058,0.547 1.058,1.57 l 0,1.824 c 0,1.055 -0.351,1.567 -1.058,1.567 -0.832,0 -1.153,-0.606 -1.598,-0.606 -0.449,0 -1.695,0.703 -3.969,0.703 -3.871,0 -6.015,-1.793 -6.015,-4.386 0,-2.782 2.273,-4.317 6.527,-4.317 l 0.894,0 c 2.372,0 3.524,-0.449 3.524,-2.05 0,-1.407 -1.41,-2.43 -3.684,-2.43 -2.109,0 -3.902,0.765 -4.734,1.855 -0.609,0.801 -0.512,1.664 -1.473,1.664 -0.832,0 -1.121,-0.449 -1.121,-1.281 l 0,-2.785"
         id="path56"
         style="fill:#000000;fill-opacity:1;fill-rule:nonzero;stroke:none" /><path
         d="m 202.445,511.89 9.825,21.152 c 0.097,0.192 0.16,0.383 0.16,0.578 0,0.606 -0.543,1.055 -1.118,1.055 -0.64,0 -0.96,-0.449 -1.41,-1.375 l -9.757,-21.027 c -0.098,-0.223 -0.161,-0.446 -0.161,-0.637 0,-0.609 0.512,-1.09 1.086,-1.09 0.672,0 0.992,0.481 1.375,1.344"
         id="path58"
         style="fill:#000000;fill-opacity:1;fill-rule:nonzero;stroke:none" /><path
         d="m 64.688,478.003 12.96,0 c 0.383,0 0.739,0.352 0.739,0.734 l 0,1.665 c 0,0.386 -0.258,0.64 -0.739,0.64 l -12.96,0 c -0.415,0 -0.672,-0.254 -0.672,-0.64 l 0,-1.665 c 0,-0.445 0.257,-0.734 0.672,-0.734"
         id="path60"
         style="fill:#000000;fill-opacity:1;fill-rule:nonzero;stroke:none" /><path
         d="m 86.434,484.499 0,7.617 c 0,0.446 -0.286,0.637 -0.895,0.637 l -2.367,0 c -0.832,0 -1.25,-0.383 -1.25,-1.117 0,-0.801 0.449,-1.09 1.441,-1.09 0.223,0 0.481,-0.031 0.703,-0.031 l 0,-16 -0.32,0 c -1.277,0 -1.824,-0.192 -1.824,-1.09 0,-0.734 0.418,-1.117 1.25,-1.117 l 2.848,0 c 0.48,0 0.64,0.254 0.64,0.797 l 0,1.25 c 1.055,-1.567 2.688,-2.336 4.863,-2.336 4.192,0 7.391,3.297 7.391,7.359 0,4.129 -3.137,7.359 -7.328,7.359 -2.207,0 -3.969,-0.765 -5.152,-2.238 m 4.867,-10.015 c -2.914,0 -4.93,2.109 -4.93,4.992 0,2.91 2.047,4.992 4.93,4.992 2.91,0 4.926,-2.145 4.926,-4.992 0,-2.977 -2.016,-4.992 -4.926,-4.992"
         id="path62"
         style="fill:#000000;fill-opacity:1;fill-rule:nonzero;stroke:none" /><path
         d="m 105.75,478.066 0,7.488 0,0.16 c 0,0.703 -0.031,1.023 -0.898,1.023 l -2.368,0 c -0.832,0 -1.246,-0.351 -1.246,-1.085 0,-0.801 0.446,-1.122 1.438,-1.122 l 0.707,0 0,-7.039 c 0,-3.648 1.726,-5.504 5.148,-5.504 1.891,0 3.235,0.735 4.867,2.016 l 0,-1.055 c 0,-0.386 0.286,-0.64 0.895,-0.64 l 2.367,0 c 0.832,0 1.25,0.383 1.25,1.117 0,0.801 -0.449,1.09 -1.441,1.09 l -0.703,0 0,10.719 c 0,0.929 0,1.503 -1.09,1.503 l -3.328,0 c -0.864,0 -1.246,-0.32 -1.246,-1.085 0,-0.77 0.32,-1.122 1.152,-1.122 l 2.144,0 0,-6.464 c 0,-2.305 -2.015,-3.774 -4.128,-3.774 -2.434,0 -3.52,1.215 -3.52,3.774"
         id="path64"
         style="fill:#000000;fill-opacity:1;fill-rule:nonzero;stroke:none" /><path
         d="m 130.406,474.515 0,11.582 c 0,0.387 -0.289,0.64 -0.894,0.64 l -4.578,0 c -0.832,0 -1.246,-0.351 -1.246,-1.085 0,-0.739 0.449,-1.122 1.312,-1.122 l 3.039,0 0,-10.015 -4.769,0 c -0.864,0 -1.309,-0.352 -1.309,-1.09 0,-0.734 0.414,-1.117 1.246,-1.117 l 12.129,0 c 0.926,0 1.277,0.222 1.277,1.117 0,0.77 -0.383,1.09 -1.183,1.09 l -5.024,0 m -2.91,16.734 c 0,-1.277 0.32,-1.535 1.633,-1.535 1.504,0 1.598,0.352 1.598,1.984 0,1.633 -0.161,2.114 -1.598,2.114 -1.441,0 -1.633,-0.481 -1.633,-2.563"
         id="path66"
         style="fill:#000000;fill-opacity:1;fill-rule:nonzero;stroke:none" /><path
         d="m 147.16,490.515 0,-16 -4.32,0 c -0.863,0 -1.313,-0.352 -1.313,-1.09 0,-0.734 0.418,-1.117 1.25,-1.117 l 11.52,0 c 0.93,0 1.281,0.222 1.281,1.117 0,0.77 -0.387,1.09 -1.183,1.09 l -4.868,0 0,17.601 c 0,0.383 -0.285,0.637 -0.894,0.637 l -5.153,0 c -0.832,0 -1.246,-0.383 -1.246,-1.117 0,-0.801 0.446,-1.09 1.473,-1.09 0.156,0 0.445,-0.031 0.797,-0.031 l 2.656,0"
         id="path68"
         style="fill:#000000;fill-opacity:1;fill-rule:nonzero;stroke:none" /><path
         d="m 161.93,479.316 c 0,3.101 1.984,5.152 4.929,5.152 2.911,0 4.93,-2.113 4.93,-4.992 0,-2.883 -2.082,-5.059 -4.961,-5.059 -2.785,0 -4.898,1.953 -4.898,4.899 m 10.242,-7.008 2.976,0 c 0.672,0 1.118,0.414 1.118,1.117 0,0.801 -0.446,1.09 -1.438,1.09 l -0.703,0 0,17.601 c 0,0.446 -0.289,0.637 -0.898,0.637 l -3.2,0 c -0.832,0 -1.25,-0.383 -1.25,-1.117 0,-1.027 0.672,-1.121 2.145,-1.121 l 0.832,0 0,-5.985 c -1.215,1.504 -2.942,2.239 -5.086,2.239 -4.227,0 -7.426,-3.262 -7.426,-7.391 0,-4.383 3.008,-7.457 6.946,-7.457 2.207,0 4.128,0.899 5.374,2.465 l 0,-1.281 c 0,-0.543 0.129,-0.797 0.61,-0.797"
         id="path70"
         style="fill:#000000;fill-opacity:1;fill-rule:nonzero;stroke:none" /><path
         d="m 183.195,471.89 9.825,21.152 c 0.097,0.192 0.16,0.383 0.16,0.578 0,0.606 -0.543,1.055 -1.118,1.055 -0.64,0 -0.96,-0.449 -1.41,-1.375 l -9.757,-21.027 c -0.098,-0.223 -0.161,-0.446 -0.161,-0.637 0,-0.609 0.512,-1.09 1.086,-1.09 0.672,0 0.992,0.481 1.375,1.344"
         id="path72"
         style="fill:#000000;fill-opacity:1;fill-rule:nonzero;stroke:none" /><path
         d="m 103.188,438.003 12.96,0 c 0.383,0 0.739,0.352 0.739,0.734 l 0,1.665 c 0,0.386 -0.258,0.64 -0.739,0.64 l -12.96,0 c -0.415,0 -0.672,-0.254 -0.672,-0.64 l 0,-1.665 c 0,-0.445 0.257,-0.734 0.672,-0.734"
         id="path74"
         style="fill:#000000;fill-opacity:1;fill-rule:nonzero;stroke:none" /><path
         d="m 123.43,439.316 c 0,3.101 1.984,5.152 4.929,5.152 2.911,0 4.93,-2.113 4.93,-4.992 0,-2.883 -2.082,-5.059 -4.961,-5.059 -2.785,0 -4.898,1.953 -4.898,4.899 m 10.242,-7.008 2.976,0 c 0.672,0 1.118,0.414 1.118,1.117 0,0.801 -0.446,1.09 -1.438,1.09 l -0.703,0 0,17.601 c 0,0.446 -0.289,0.637 -0.898,0.637 l -3.2,0 c -0.832,0 -1.25,-0.383 -1.25,-1.117 0,-1.027 0.672,-1.121 2.145,-1.121 l 0.832,0 0,-5.985 c -1.215,1.504 -2.942,2.239 -5.086,2.239 -4.227,0 -7.426,-3.262 -7.426,-7.391 0,-4.383 3.008,-7.457 6.946,-7.457 2.207,0 4.128,0.899 5.374,2.465 l 0,-1.281 c 0,-0.543 0.129,-0.797 0.61,-0.797"
         id="path76"
         style="fill:#000000;fill-opacity:1;fill-rule:nonzero;stroke:none" /><path
         d="m 156.379,439.507 c 0,4.32 -3.203,7.582 -8.16,7.582 -4.961,0 -8.196,-3.23 -8.196,-7.582 0,-4.352 3.235,-7.586 8.196,-7.586 4.957,0 8.16,3.234 8.16,7.586 m -8.16,-5.41 c -3.235,0 -5.473,2.305 -5.473,5.41 0,3.102 2.238,5.441 5.473,5.441 3.23,0 5.469,-2.339 5.469,-5.441 0,-3.137 -2.239,-5.41 -5.469,-5.41"
         id="path78"
         style="fill:#000000;fill-opacity:1;fill-rule:nonzero;stroke:none" /><path
         d="m 164.043,434.515 3.586,3.84 3.933,-3.84 -0.863,0 c -0.929,0 -1.406,-0.449 -1.406,-1.121 0,-0.766 0.543,-1.086 1.598,-1.086 l 3.199,0 c 1.379,0 1.89,0.16 1.89,1.086 0,0.703 -0.418,1.121 -1.218,1.121 l -0.16,0 -5.469,5.344 4.476,4.671 c 0.161,0 0.321,-0.031 0.45,-0.031 1.089,0 1.632,0.352 1.632,1.153 0,0.671 -0.449,1.085 -1.089,1.085 l -4.063,0 c -1.09,0 -1.601,-0.32 -1.601,-1.117 0,-0.738 0.578,-1.09 1.73,-1.09 l 0.32,0 -3.199,-3.296 -3.363,3.296 c 1.183,0 1.793,0.352 1.793,1.09 0,0.797 -0.512,1.117 -1.602,1.117 l -3.199,0 c -1.375,0 -1.918,-0.191 -1.918,-1.117 0,-0.832 0.445,-1.09 1.598,-1.09 l 0.226,0 4.957,-4.832 -5.054,-5.183 -0.321,0 c -1.152,0 -1.758,-0.32 -1.758,-1.024 0,-0.769 0.446,-1.183 1.086,-1.183 l 4.289,0 c 1.055,0 1.633,0.32 1.633,1.086 0,0.703 -0.609,1.152 -1.664,1.152 -0.16,0 -0.289,-0.031 -0.449,-0.031"
         id="path80"
         style="fill:#000000;fill-opacity:1;fill-rule:nonzero;stroke:none" /><path
         d="m 185.531,428.308 8.227,16.222 c 1.086,0.032 1.566,0.29 1.566,1.122 0,0.734 -0.414,1.085 -1.246,1.085 l -3.871,0 c -1.027,0 -1.473,-0.16 -1.473,-1.085 0,-0.899 0.543,-1.122 1.887,-1.122 l 0.609,0 -4.351,-8.609 -4.195,8.609 0.578,0 c 1.281,0 1.824,0.223 1.824,1.122 0,0.925 -0.449,1.085 -1.473,1.085 l -4.351,0 c -0.832,0 -1.25,-0.351 -1.25,-1.085 0,-0.899 0.511,-1.122 1.793,-1.122 l 5.726,-11.23 -2.558,-4.992 -3.391,0 c -0.801,0 -1.184,-0.387 -1.184,-1.121 0,-0.864 0.383,-1.121 1.313,-1.121 l 7.168,0 c 0.832,0 1.277,0.386 1.277,1.121 0,0.929 -0.574,1.121 -1.949,1.121 l -0.676,0"
         id="path82"
         style="fill:#000000;fill-opacity:1;fill-rule:nonzero;stroke:none" /><path
         d="m 212.305,433.14 0,11.39 0.285,0 c 1.312,0 1.855,0.223 1.855,1.122 0,0.734 -0.414,1.085 -1.246,1.085 l -2.367,0 c -0.609,0 -0.898,-0.191 -0.898,-0.64 l 0,-1.117 c -1.504,1.183 -3.008,1.789 -4.606,1.789 -3.777,0 -6.883,-2.848 -6.883,-6.879 0,-4.094 2.883,-6.942 6.754,-6.942 2.016,0 3.489,0.672 4.77,2.141 l 0,-1.887 c 0,-3.23 -0.992,-4.703 -4.258,-4.703 -0.832,0 -1.695,0.223 -2.625,0.223 -0.734,0 -1.344,-0.574 -1.344,-1.215 0,-1.023 1.121,-1.441 3.426,-1.441 2.91,0 5.023,0.863 6.176,2.367 0.926,1.219 0.961,2.594 0.961,4.355 l 0,0.352 m -6.785,11.293 c 2.75,0 4.64,-1.918 4.64,-4.543 0,-2.656 -1.922,-4.543 -4.64,-4.543 -2.754,0 -4.641,1.918 -4.641,4.543 0,2.687 1.922,4.543 4.641,4.543"
         id="path84"
         style="fill:#000000;fill-opacity:1;fill-rule:nonzero;stroke:none" /><path
         d="m 220,440.882 c 0.609,2.594 2.625,4.129 5.379,4.129 2.527,0 4.512,-1.633 4.797,-4.129 l -10.176,0 m -0.062,-2.047 10.496,0 c 1.918,0 2.589,0 2.589,1.473 0,3.488 -2.91,6.847 -7.644,6.847 -4.832,0 -8.16,-3.105 -8.16,-7.585 0,-4.672 3.008,-7.649 7.84,-7.649 2.109,0 4.382,0.512 6.527,1.57 0.926,0.446 1.375,0.926 1.375,1.567 0,0.578 -0.481,1.023 -1.086,1.023 -1.41,0 -3.426,-1.949 -6.594,-1.949 -3.23,0 -5.183,1.695 -5.343,4.703"
         id="path86"
         style="fill:#000000;fill-opacity:1;fill-rule:nonzero;stroke:none" /><path
         d="m 238.645,434.515 -0.321,0 c -1.281,0 -1.824,-0.192 -1.824,-1.09 0,-0.734 0.414,-1.117 1.312,-1.117 l 0.833,0 2.847,0 c 1.184,0 1.664,0.062 1.664,1.117 0,0.867 -0.418,1.121 -1.504,1.121 -0.191,0 -0.418,-0.031 -0.672,-0.031 l 0,6.496 c 0,2.336 2.176,3.742 4.063,3.742 2.047,0 3.199,-1.246 3.199,-3.742 l 0,-6.496 -0.512,0 c -1.121,0 -1.566,-0.223 -1.566,-1.09 0,-1.023 0.445,-1.117 1.566,-1.117 l 3.458,0 c 1.121,0 1.664,0.222 1.664,1.117 0,0.801 -0.481,1.09 -1.473,1.09 l -0.703,0 0,7.07 c 0,3.617 -2.114,5.57 -5.09,5.57 -1.629,0 -3.07,-0.703 -4.574,-2.113 l 0,1.055 c 0,0.387 -0.289,0.64 -0.899,0.64 l -1.468,0 c -1.442,0 -2.145,0 -2.145,-1.085 0,-0.801 0.445,-1.122 1.438,-1.122 l 0.707,0 0,-10.015"
         id="path88"
         style="fill:#000000;fill-opacity:1;fill-rule:nonzero;stroke:none" /><path
         d="m 260.195,431.89 9.825,21.152 c 0.097,0.192 0.16,0.383 0.16,0.578 0,0.606 -0.543,1.055 -1.118,1.055 -0.64,0 -0.96,-0.449 -1.41,-1.375 l -9.757,-21.027 c -0.098,-0.223 -0.161,-0.446 -0.161,-0.637 0,-0.609 0.512,-1.09 1.086,-1.09 0.672,0 0.992,0.481 1.375,1.344"
         id="path90"
         style="fill:#000000;fill-opacity:1;fill-rule:nonzero;stroke:none" /><path
         d="m 103.188,398.003 12.96,0 c 0.383,0 0.739,0.352 0.739,0.734 l 0,1.665 c 0,0.386 -0.258,0.64 -0.739,0.64 l -12.96,0 c -0.415,0 -0.672,-0.254 -0.672,-0.64 l 0,-1.665 c 0,-0.445 0.257,-0.734 0.672,-0.734"
         id="path92"
         style="fill:#000000;fill-opacity:1;fill-rule:nonzero;stroke:none" /><path
         d="m 130.406,394.515 0,11.582 c 0,0.387 -0.289,0.64 -0.894,0.64 l -4.578,0 c -0.832,0 -1.246,-0.351 -1.246,-1.085 0,-0.739 0.449,-1.122 1.312,-1.122 l 3.039,0 0,-10.015 -4.769,0 c -0.864,0 -1.309,-0.352 -1.309,-1.09 0,-0.734 0.414,-1.117 1.246,-1.117 l 12.129,0 c 0.926,0 1.277,0.222 1.277,1.117 0,0.77 -0.383,1.09 -1.183,1.09 l -5.024,0 m -2.91,16.734 c 0,-1.277 0.32,-1.535 1.633,-1.535 1.504,0 1.598,0.352 1.598,1.984 0,1.633 -0.161,2.114 -1.598,2.114 -1.441,0 -1.633,-0.481 -1.633,-2.563"
         id="path94"
         style="fill:#000000;fill-opacity:1;fill-rule:nonzero;stroke:none" /><path
         d="m 142.395,394.515 -0.321,0 c -1.281,0 -1.824,-0.192 -1.824,-1.09 0,-0.734 0.414,-1.117 1.312,-1.117 l 0.833,0 2.847,0 c 1.184,0 1.664,0.062 1.664,1.117 0,0.867 -0.418,1.121 -1.504,1.121 -0.191,0 -0.418,-0.031 -0.672,-0.031 l 0,6.496 c 0,2.336 2.176,3.742 4.063,3.742 2.047,0 3.199,-1.246 3.199,-3.742 l 0,-6.496 -0.512,0 c -1.121,0 -1.566,-0.223 -1.566,-1.09 0,-1.023 0.445,-1.117 1.566,-1.117 l 3.458,0 c 1.121,0 1.664,0.222 1.664,1.117 0,0.801 -0.481,1.09 -1.473,1.09 l -0.703,0 0,7.07 c 0,3.617 -2.114,5.57 -5.09,5.57 -1.629,0 -3.07,-0.703 -4.574,-2.113 l 0,1.055 c 0,0.387 -0.289,0.64 -0.899,0.64 l -1.468,0 c -1.442,0 -2.145,0 -2.145,-1.085 0,-0.801 0.445,-1.122 1.438,-1.122 l 0.707,0 0,-10.015"
         id="path96"
         style="fill:#000000;fill-opacity:1;fill-rule:nonzero;stroke:none" /><path
         d="m 174.508,402.034 0,2.914 c 0,1.344 -0.16,1.918 -1.121,1.918 -0.801,0 -1.215,-0.289 -1.215,-0.992 l 0,-0.062 c -1.731,0.863 -3.297,1.312 -4.93,1.312 -4.48,0 -7.871,-3.297 -7.871,-7.617 0,-4.32 3.359,-7.586 7.902,-7.586 3.778,0 7.297,2.336 7.297,3.809 0,0.64 -0.445,1.09 -1.086,1.09 -0.832,0 -1.441,-0.77 -2.402,-1.411 -1.117,-0.734 -2.398,-1.152 -3.648,-1.152 -3.262,0 -5.344,2.176 -5.344,5.281 0,3.008 2.242,5.153 5.472,5.153 1.856,0 3.329,-0.864 4.29,-2.559 0.48,-0.867 0.8,-1.25 1.472,-1.25 0.766,0 1.184,0.383 1.184,1.152"
         id="path98"
         style="fill:#000000;fill-opacity:1;fill-rule:nonzero;stroke:none" /><path
         d="m 185.66,410.515 0,-16 -4.32,0 c -0.863,0 -1.313,-0.352 -1.313,-1.09 0,-0.734 0.418,-1.117 1.25,-1.117 l 11.52,0 c 0.93,0 1.281,0.222 1.281,1.117 0,0.77 -0.387,1.09 -1.183,1.09 l -4.868,0 0,17.601 c 0,0.383 -0.285,0.637 -0.894,0.637 l -5.153,0 c -0.832,0 -1.246,-0.383 -1.246,-1.117 0,-0.801 0.446,-1.09 1.473,-1.09 0.156,0 0.445,-0.031 0.797,-0.031 l 2.656,0"
         id="path100"
         style="fill:#000000;fill-opacity:1;fill-rule:nonzero;stroke:none" /><path
         d="m 202,398.066 0,7.488 0,0.16 c 0,0.703 -0.031,1.023 -0.898,1.023 l -2.368,0 c -0.832,0 -1.246,-0.351 -1.246,-1.085 0,-0.801 0.446,-1.122 1.438,-1.122 l 0.707,0 0,-7.039 c 0,-3.648 1.726,-5.504 5.148,-5.504 1.891,0 3.235,0.735 4.867,2.016 l 0,-1.055 c 0,-0.386 0.286,-0.64 0.895,-0.64 l 2.367,0 c 0.832,0 1.25,0.383 1.25,1.117 0,0.801 -0.449,1.09 -1.441,1.09 l -0.703,0 0,10.719 c 0,0.929 0,1.503 -1.09,1.503 l -3.328,0 c -0.864,0 -1.246,-0.32 -1.246,-1.085 0,-0.77 0.32,-1.122 1.152,-1.122 l 2.144,0 0,-6.464 c 0,-2.305 -2.015,-3.774 -4.128,-3.774 -2.434,0 -3.52,1.215 -3.52,3.774"
         id="path102"
         style="fill:#000000;fill-opacity:1;fill-rule:nonzero;stroke:none" /><path
         d="m 219.68,399.316 c 0,3.101 1.984,5.152 4.929,5.152 2.911,0 4.93,-2.113 4.93,-4.992 0,-2.883 -2.082,-5.059 -4.961,-5.059 -2.785,0 -4.898,1.953 -4.898,4.899 m 10.242,-7.008 2.976,0 c 0.672,0 1.118,0.414 1.118,1.117 0,0.801 -0.446,1.09 -1.438,1.09 l -0.703,0 0,17.601 c 0,0.446 -0.289,0.637 -0.898,0.637 l -3.2,0 c -0.832,0 -1.25,-0.383 -1.25,-1.117 0,-1.027 0.672,-1.121 2.145,-1.121 l 0.832,0 0,-5.985 c -1.215,1.504 -2.942,2.239 -5.086,2.239 -4.227,0 -7.426,-3.262 -7.426,-7.391 0,-4.383 3.008,-7.457 6.946,-7.457 2.207,0 4.128,0.899 5.374,2.465 l 0,-1.281 c 0,-0.543 0.129,-0.797 0.61,-0.797"
         id="path104"
         style="fill:#000000;fill-opacity:1;fill-rule:nonzero;stroke:none" /><path
         d="m 239.25,400.882 c 0.609,2.594 2.625,4.129 5.379,4.129 2.527,0 4.512,-1.633 4.797,-4.129 l -10.176,0 m -0.062,-2.047 10.496,0 c 1.918,0 2.589,0 2.589,1.473 0,3.488 -2.91,6.847 -7.644,6.847 -4.832,0 -8.16,-3.105 -8.16,-7.585 0,-4.672 3.008,-7.649 7.84,-7.649 2.109,0 4.382,0.512 6.527,1.57 0.926,0.446 1.375,0.926 1.375,1.567 0,0.578 -0.481,1.023 -1.086,1.023 -1.41,0 -3.426,-1.949 -6.594,-1.949 -3.23,0 -5.183,1.695 -5.343,4.703"
         id="path106"
         style="fill:#000000;fill-opacity:1;fill-rule:nonzero;stroke:none" /><path
         d="m 260.195,391.89 9.825,21.152 c 0.097,0.192 0.16,0.383 0.16,0.578 0,0.606 -0.543,1.055 -1.118,1.055 -0.64,0 -0.96,-0.449 -1.41,-1.375 l -9.757,-21.027 c -0.098,-0.223 -0.161,-0.446 -0.161,-0.637 0,-0.609 0.512,-1.09 1.086,-1.09 0.672,0 0.992,0.481 1.375,1.344"
         id="path108"
         style="fill:#000000;fill-opacity:1;fill-rule:nonzero;stroke:none" /><path
         d="m 103.188,358.003 12.96,0 c 0.383,0 0.739,0.352 0.739,0.734 l 0,1.665 c 0,0.386 -0.258,0.64 -0.739,0.64 l -12.96,0 c -0.415,0 -0.672,-0.254 -0.672,-0.64 l 0,-1.665 c 0,-0.445 0.257,-0.734 0.672,-0.734"
         id="path110"
         style="fill:#000000;fill-opacity:1;fill-rule:nonzero;stroke:none" /><path
         d="m 137.129,359.507 c 0,4.32 -3.203,7.582 -8.16,7.582 -4.961,0 -8.196,-3.23 -8.196,-7.582 0,-4.352 3.235,-7.586 8.196,-7.586 4.957,0 8.16,3.234 8.16,7.586 m -8.16,-5.41 c -3.235,0 -5.473,2.305 -5.473,5.41 0,3.102 2.238,5.441 5.473,5.441 3.23,0 5.469,-2.339 5.469,-5.441 0,-3.137 -2.239,-5.41 -5.469,-5.41"
         id="path112"
         style="fill:#800000;fill-opacity:1;fill-rule:nonzero;stroke:none" /><path
         d="m 144.184,364.499 0,7.617 c 0,0.446 -0.286,0.637 -0.895,0.637 l -2.367,0 c -0.832,0 -1.25,-0.383 -1.25,-1.117 0,-0.801 0.449,-1.09 1.441,-1.09 0.223,0 0.481,-0.031 0.703,-0.031 l 0,-16 -0.32,0 c -1.277,0 -1.824,-0.192 -1.824,-1.09 0,-0.734 0.418,-1.117 1.25,-1.117 l 2.848,0 c 0.48,0 0.64,0.254 0.64,0.797 l 0,1.25 c 1.055,-1.567 2.688,-2.336 4.863,-2.336 4.192,0 7.391,3.297 7.391,7.359 0,4.129 -3.137,7.359 -7.328,7.359 -2.207,0 -3.969,-0.765 -5.152,-2.238 m 4.867,-10.015 c -2.914,0 -4.93,2.109 -4.93,4.992 0,2.91 2.047,4.992 4.93,4.992 2.91,0 4.926,-2.145 4.926,-4.992 0,-2.977 -2.016,-4.992 -4.926,-4.992"
         id="path114"
         style="fill:#800000;fill-opacity:1;fill-rule:nonzero;stroke:none" /><path
         d="m 172.266,354.452 0,10.59 0,1.055 c 0,0.387 -0.286,0.64 -0.895,0.64 l -8.609,0 c -0.832,0 -1.246,-0.351 -1.246,-1.085 0,-0.801 0.449,-1.122 1.472,-1.122 l 0.801,0 6.109,0 0,-11.23 c 0,-3.234 -0.992,-4.707 -4.253,-4.707 -0.833,0 -1.7,0.227 -2.625,0.227 -0.739,0 -1.344,-0.579 -1.344,-1.219 0,-1.024 1.121,-1.469 3.422,-1.469 3.554,0 5.922,1.309 6.722,3.359 0.414,1.055 0.446,2.657 0.446,4.961 m -4.223,16.797 c 0,-1.277 0.289,-1.535 1.602,-1.535 1.503,0 1.597,0.352 1.597,1.984 0,1.633 -0.129,2.114 -1.566,2.114 -1.442,0 -1.633,-0.481 -1.633,-2.563"
         id="path116"
         style="fill:#800000;fill-opacity:1;fill-rule:nonzero;stroke:none" /><path
         d="m 183.195,351.89 9.825,21.152 c 0.097,0.192 0.16,0.383 0.16,0.578 0,0.606 -0.543,1.055 -1.118,1.055 -0.64,0 -0.96,-0.449 -1.41,-1.375 l -9.757,-21.027 c -0.098,-0.223 -0.161,-0.446 -0.161,-0.637 0,-0.609 0.512,-1.09 1.086,-1.09 0.672,0 0.992,0.481 1.375,1.344"
         id="path118"
         style="fill:#000000;fill-opacity:1;fill-rule:nonzero;stroke:none" /><path
         d="m 103.188,318.003 12.96,0 c 0.383,0 0.739,0.352 0.739,0.734 l 0,1.665 c 0,0.386 -0.258,0.64 -0.739,0.64 l -12.96,0 c -0.415,0 -0.672,-0.254 -0.672,-0.64 l 0,-1.665 c 0,-0.445 0.257,-0.734 0.672,-0.734"
         id="path120"
         style="fill:#000000;fill-opacity:1;fill-rule:nonzero;stroke:none" /><path
         d="m 122.117,313.425 c 0,-0.992 0.418,-1.504 1.153,-1.504 0.355,0 0.867,0.258 1.601,0.738 1.762,-0.449 3.328,-0.703 4.734,-0.703 3.907,0 6.114,1.949 6.114,4.637 0,3.074 -2.145,4.289 -6.274,4.387 -3.07,0.062 -4.863,0.222 -4.863,1.886 0,1.25 1.184,2.305 3.266,2.305 1.632,0 2.785,-0.383 3.968,-1.441 0.926,-0.832 1.246,-1.633 1.95,-1.633 0.769,0 1.058,0.547 1.058,1.57 l 0,1.824 c 0,1.055 -0.351,1.567 -1.058,1.567 -0.832,0 -1.153,-0.606 -1.598,-0.606 -0.449,0 -1.695,0.703 -3.969,0.703 -3.871,0 -6.015,-1.793 -6.015,-4.386 0,-2.782 2.273,-4.317 6.527,-4.317 l 0.894,0 c 2.372,0 3.524,-0.449 3.524,-2.05 0,-1.407 -1.41,-2.43 -3.684,-2.43 -2.109,0 -3.902,0.765 -4.734,1.855 -0.609,0.801 -0.512,1.664 -1.473,1.664 -0.832,0 -1.121,-0.449 -1.121,-1.281 l 0,-2.785"
         id="path122"
         style="fill:#000000;fill-opacity:1;fill-rule:nonzero;stroke:none" /><path
         d="m 146.68,314.515 0,6.465 c 2.082,2.367 3.84,3.613 5.57,3.613 1.215,0 1.887,-0.957 2.719,-0.957 0.672,0 1.375,0.703 1.375,1.469 0,1.152 -1.153,2.019 -3.102,2.019 -2.496,0 -4.609,-1.219 -6.562,-3.683 l 0,2.656 c 0,0.449 -0.285,0.64 -0.864,0.64 l -3.55,0 c -0.832,0 -1.25,-0.351 -1.25,-1.085 0,-0.801 0.449,-1.122 1.472,-1.122 l 0.801,0 1.055,0 0,-10.015 -2.75,0 c -0.864,0 -1.313,-0.352 -1.313,-1.09 0,-0.734 0.449,-1.117 1.281,-1.117 l 10.208,0 c 0.925,0 1.281,0.222 1.281,1.117 0,0.77 -0.387,1.09 -1.188,1.09 l -5.183,0"
         id="path124"
         style="fill:#000000;fill-opacity:1;fill-rule:nonzero;stroke:none" /><path
         d="m 174.508,322.034 0,2.914 c 0,1.344 -0.16,1.918 -1.121,1.918 -0.801,0 -1.215,-0.289 -1.215,-0.992 l 0,-0.062 c -1.731,0.863 -3.297,1.312 -4.93,1.312 -4.48,0 -7.871,-3.297 -7.871,-7.617 0,-4.32 3.359,-7.586 7.902,-7.586 3.778,0 7.297,2.336 7.297,3.809 0,0.64 -0.445,1.09 -1.086,1.09 -0.832,0 -1.441,-0.77 -2.402,-1.411 -1.117,-0.734 -2.398,-1.152 -3.648,-1.152 -3.262,0 -5.344,2.176 -5.344,5.281 0,3.008 2.242,5.153 5.472,5.153 1.856,0 3.329,-0.864 4.29,-2.559 0.48,-0.867 0.8,-1.25 1.472,-1.25 0.766,0 1.184,0.383 1.184,1.152"
         id="path126"
         style="fill:#000000;fill-opacity:1;fill-rule:nonzero;stroke:none" /><path
         d="m 183.195,311.89 9.825,21.152 c 0.097,0.192 0.16,0.383 0.16,0.578 0,0.606 -0.543,1.055 -1.118,1.055 -0.64,0 -0.96,-0.449 -1.41,-1.375 l -9.757,-21.027 c -0.098,-0.223 -0.161,-0.446 -0.161,-0.637 0,-0.609 0.512,-1.09 1.086,-1.09 0.672,0 0.992,0.481 1.375,1.344"
         id="path128"
         style="fill:#000000;fill-opacity:1;fill-rule:nonzero;stroke:none" /><path
         d="m 64.688,278.003 12.96,0 c 0.383,0 0.739,0.352 0.739,0.734 l 0,1.665 c 0,0.386 -0.258,0.64 -0.739,0.64 l -12.96,0 c -0.415,0 -0.672,-0.254 -0.672,-0.64 l 0,-1.665 c 0,-0.445 0.257,-0.734 0.672,-0.734"
         id="path130"
         style="fill:#000000;fill-opacity:1;fill-rule:nonzero;stroke:none" /><path
         d="m 84.93,279.316 c 0,3.101 1.984,5.152 4.929,5.152 2.911,0 4.93,-2.113 4.93,-4.992 0,-2.883 -2.082,-5.059 -4.961,-5.059 -2.785,0 -4.898,1.953 -4.898,4.899 m 10.242,-7.008 2.976,0 c 0.672,0 1.118,0.414 1.118,1.117 0,0.801 -0.446,1.09 -1.438,1.09 l -0.703,0 0,17.601 c 0,0.446 -0.289,0.637 -0.898,0.637 l -3.2,0 c -0.832,0 -1.25,-0.383 -1.25,-1.117 0,-1.027 0.672,-1.121 2.145,-1.121 l 0.832,0 0,-5.985 c -1.215,1.504 -2.942,2.239 -5.086,2.239 -4.227,0 -7.426,-3.262 -7.426,-7.391 0,-4.383 3.008,-7.457 6.946,-7.457 2.207,0 4.128,0.899 5.374,2.465 l 0,-1.281 c 0,-0.543 0.129,-0.797 0.61,-0.797"
         id="path132"
         style="fill:#008000;fill-opacity:1;fill-rule:nonzero;stroke:none" /><path
         d="m 117.879,279.507 c 0,4.32 -3.203,7.582 -8.16,7.582 -4.961,0 -8.196,-3.23 -8.196,-7.582 0,-4.352 3.235,-7.586 8.196,-7.586 4.957,0 8.16,3.234 8.16,7.586 m -8.16,-5.41 c -3.235,0 -5.473,2.305 -5.473,5.41 0,3.102 2.238,5.441 5.473,5.441 3.23,0 5.469,-2.339 5.469,-5.441 0,-3.137 -2.239,-5.41 -5.469,-5.41"
         id="path134"
         style="fill:#008000;fill-opacity:1;fill-rule:nonzero;stroke:none" /><path
         d="m 136.008,282.034 0,2.914 c 0,1.344 -0.16,1.918 -1.121,1.918 -0.801,0 -1.215,-0.289 -1.215,-0.992 l 0,-0.062 c -1.731,0.863 -3.297,1.312 -4.93,1.312 -4.48,0 -7.871,-3.297 -7.871,-7.617 0,-4.32 3.359,-7.586 7.902,-7.586 3.778,0 7.297,2.336 7.297,3.809 0,0.64 -0.445,1.09 -1.086,1.09 -0.832,0 -1.441,-0.77 -2.402,-1.411 -1.117,-0.734 -2.398,-1.152 -3.648,-1.152 -3.262,0 -5.344,2.176 -5.344,5.281 0,3.008 2.242,5.153 5.472,5.153 1.856,0 3.329,-0.864 4.29,-2.559 0.48,-0.867 0.8,-1.25 1.472,-1.25 0.766,0 1.184,0.383 1.184,1.152"
         id="path136"
         style="fill:#008000;fill-opacity:1;fill-rule:nonzero;stroke:none" /><path
         d="m 144.695,271.89 9.825,21.152 c 0.097,0.192 0.16,0.383 0.16,0.578 0,0.606 -0.543,1.055 -1.118,1.055 -0.64,0 -0.96,-0.449 -1.41,-1.375 l -9.757,-21.027 c -0.098,-0.223 -0.161,-0.446 -0.161,-0.637 0,-0.609 0.512,-1.09 1.086,-1.09 0.672,0 0.992,0.481 1.375,1.344"
         id="path138"
         style="fill:#000000;fill-opacity:1;fill-rule:nonzero;stroke:none" /><path
         d="m 64.688,238.003 12.96,0 c 0.383,0 0.739,0.352 0.739,0.734 l 0,1.665 c 0,0.386 -0.258,0.64 -0.739,0.64 l -12.96,0 c -0.415,0 -0.672,-0.254 -0.672,-0.64 l 0,-1.665 c 0,-0.445 0.257,-0.734 0.672,-0.734"
         id="path140"
         style="fill:#000000;fill-opacity:1;fill-rule:nonzero;stroke:none" /><path
         d="m 85.25,240.882 c 0.609,2.594 2.625,4.129 5.379,4.129 2.527,0 4.512,-1.633 4.797,-4.129 l -10.176,0 m -0.062,-2.047 10.496,0 c 1.918,0 2.589,0 2.589,1.473 0,3.488 -2.91,6.847 -7.644,6.847 -4.832,0 -8.16,-3.105 -8.16,-7.585 0,-4.672 3.008,-7.649 7.84,-7.649 2.109,0 4.382,0.512 6.527,1.57 0.926,0.446 1.375,0.926 1.375,1.567 0,0.578 -0.481,1.023 -1.086,1.023 -1.41,0 -3.426,-1.949 -6.594,-1.949 -3.23,0 -5.183,1.695 -5.343,4.703"
         id="path142"
         style="fill:#800000;fill-opacity:1;fill-rule:nonzero;stroke:none" /><path
         d="m 102.551,244.53 5.117,-11.39 c 0.418,-0.961 0.77,-1.379 1.824,-1.379 1.121,0 1.442,0.387 1.891,1.379 l 5.148,11.39 0.289,0 c 1.25,0 1.793,0.223 1.793,1.122 0,0.734 -0.418,1.085 -1.25,1.085 l -4.832,0 c -1.023,0 -1.469,-0.16 -1.469,-1.085 0,-0.93 0.575,-1.153 2.047,-1.153 0.289,0 0.575,0.031 0.93,0.031 l -4.516,-10.113 -4.062,10.113 0.578,0 c 1.277,0 1.82,0.223 1.82,1.122 0,0.925 -0.445,1.085 -1.468,1.085 l -4.387,0 c -0.832,0 -1.246,-0.351 -1.246,-1.085 0,-0.899 0.512,-1.122 1.793,-1.122"
         id="path144"
         style="fill:#800000;fill-opacity:1;fill-rule:nonzero;stroke:none" /><path
         d="m 123.75,240.882 c 0.609,2.594 2.625,4.129 5.379,4.129 2.527,0 4.512,-1.633 4.797,-4.129 l -10.176,0 m -0.062,-2.047 10.496,0 c 1.918,0 2.589,0 2.589,1.473 0,3.488 -2.91,6.847 -7.644,6.847 -4.832,0 -8.16,-3.105 -8.16,-7.585 0,-4.672 3.008,-7.649 7.84,-7.649 2.109,0 4.382,0.512 6.527,1.57 0.926,0.446 1.375,0.926 1.375,1.567 0,0.578 -0.481,1.023 -1.086,1.023 -1.41,0 -3.426,-1.949 -6.594,-1.949 -3.23,0 -5.183,1.695 -5.343,4.703"
         id="path146"
         style="fill:#800000;fill-opacity:1;fill-rule:nonzero;stroke:none" /><path
         d="m 142.395,234.515 -0.321,0 c -1.281,0 -1.824,-0.192 -1.824,-1.09 0,-0.734 0.414,-1.117 1.312,-1.117 l 0.833,0 2.847,0 c 1.184,0 1.664,0.062 1.664,1.117 0,0.867 -0.418,1.121 -1.504,1.121 -0.191,0 -0.418,-0.031 -0.672,-0.031 l 0,6.496 c 0,2.336 2.176,3.742 4.063,3.742 2.047,0 3.199,-1.246 3.199,-3.742 l 0,-6.496 -0.512,0 c -1.121,0 -1.566,-0.223 -1.566,-1.09 0,-1.023 0.445,-1.117 1.566,-1.117 l 3.458,0 c 1.121,0 1.664,0.222 1.664,1.117 0,0.801 -0.481,1.09 -1.473,1.09 l -0.703,0 0,7.07 c 0,3.617 -2.114,5.57 -5.09,5.57 -1.629,0 -3.07,-0.703 -4.574,-2.113 l 0,1.055 c 0,0.387 -0.289,0.64 -0.899,0.64 l -1.468,0 c -1.442,0 -2.145,0 -2.145,-1.085 0,-0.801 0.445,-1.122 1.438,-1.122 l 0.707,0 0,-10.015"
         id="path148"
         style="fill:#800000;fill-opacity:1;fill-rule:nonzero;stroke:none" /><path
         d="m 171.723,245.874 -6.145,0 0,3.168 c 0,1.535 -0.129,2.176 -1.246,2.176 -0.832,0 -1.219,-0.449 -1.219,-1.313 l 0,-0.832 0,-3.199 -1.726,0 c -1.504,0 -2.145,-0.094 -2.145,-1.121 0,-0.766 0.387,-1.086 1.25,-1.086 l 2.621,0 0,-5.215 0,-0.48 c 0,-1.442 0.035,-2.688 0.578,-3.617 0.895,-1.567 2.559,-2.336 4.961,-2.336 1.473,0 3.102,0.414 5.055,1.183 1.152,0.45 1.727,0.895 1.727,1.633 0,0.574 -0.512,1.121 -1.086,1.121 -1.25,0 -3.328,-1.664 -5.856,-1.664 -2.754,0 -2.945,1.664 -2.945,4.16 l 0,5.215 6.336,0 c 0.863,0 1.312,0.352 1.312,1.086 0,0.801 -0.48,1.121 -1.472,1.121"
         id="path150"
         style="fill:#800000;fill-opacity:1;fill-rule:nonzero;stroke:none" /><path
         d="m 179.867,233.425 c 0,-0.992 0.418,-1.504 1.153,-1.504 0.355,0 0.867,0.258 1.601,0.738 1.762,-0.449 3.328,-0.703 4.734,-0.703 3.907,0 6.114,1.949 6.114,4.637 0,3.074 -2.145,4.289 -6.274,4.387 -3.07,0.062 -4.863,0.222 -4.863,1.886 0,1.25 1.184,2.305 3.266,2.305 1.632,0 2.785,-0.383 3.968,-1.441 0.926,-0.832 1.246,-1.633 1.95,-1.633 0.769,0 1.058,0.547 1.058,1.57 l 0,1.824 c 0,1.055 -0.351,1.567 -1.058,1.567 -0.832,0 -1.153,-0.606 -1.598,-0.606 -0.449,0 -1.695,0.703 -3.969,0.703 -3.871,0 -6.015,-1.793 -6.015,-4.386 0,-2.782 2.273,-4.317 6.527,-4.317 l 0.894,0 c 2.372,0 3.524,-0.449 3.524,-2.05 0,-1.407 -1.41,-2.43 -3.684,-2.43 -2.109,0 -3.902,0.765 -4.734,1.855 -0.609,0.801 -0.512,1.664 -1.473,1.664 -0.832,0 -1.121,-0.449 -1.121,-1.281 l 0,-2.785"
         id="path152"
         style="fill:#800000;fill-opacity:1;fill-rule:nonzero;stroke:none" /><path
         d="m 202.445,231.89 9.825,21.152 c 0.097,0.192 0.16,0.383 0.16,0.578 0,0.606 -0.543,1.055 -1.118,1.055 -0.64,0 -0.96,-0.449 -1.41,-1.375 l -9.757,-21.027 c -0.098,-0.223 -0.161,-0.446 -0.161,-0.637 0,-0.609 0.512,-1.09 1.086,-1.09 0.672,0 0.992,0.481 1.375,1.344"
         id="path154"
         style="fill:#000000;fill-opacity:1;fill-rule:nonzero;stroke:none" /><path
         d="m 64.688,198.003 12.96,0 c 0.383,0 0.739,0.352 0.739,0.734 l 0,1.665 c 0,0.386 -0.258,0.64 -0.739,0.64 l -12.96,0 c -0.415,0 -0.672,-0.254 -0.672,-0.64 l 0,-1.665 c 0,-0.445 0.257,-0.734 0.672,-0.734"
         id="path156"
         style="fill:#000000;fill-opacity:1;fill-rule:nonzero;stroke:none" /><path
         d="m 95.266,194.546 -5.118,0 0,9.535 5.438,0 c 0.801,0 1.25,0.418 1.25,1.153 0,0.738 -0.449,1.121 -1.313,1.121 l -5.472,0 c -0.031,0.32 -0.031,0.609 -0.031,0.894 0,2.242 0.925,3.203 3.296,3.203 1.375,0 2.43,-0.386 3.2,-0.386 0.734,0 1.281,0.449 1.281,1.121 0,1.121 -1.152,1.601 -3.426,1.601 -4.769,0 -6.848,-1.57 -6.848,-5.312 0,-0.352 0.032,-0.739 0.063,-1.121 l -2.496,0 c -0.832,0 -1.246,-0.383 -1.246,-1.121 0,-0.735 0.414,-1.153 1.281,-1.153 l 2.59,0 0,-9.535 -2.656,0 c -0.801,0 -1.247,-0.383 -1.247,-1.121 0,-0.734 0.446,-1.117 1.313,-1.117 l 10.207,0 c 0.832,0 1.246,0.383 1.246,1.117 0,0.738 -0.445,1.121 -1.312,1.121"
         id="path158"
         style="fill:#000000;fill-opacity:1;fill-rule:nonzero;stroke:none" /><path
         d="m 117.879,199.507 c 0,4.32 -3.203,7.582 -8.16,7.582 -4.961,0 -8.196,-3.23 -8.196,-7.582 0,-4.352 3.235,-7.586 8.196,-7.586 4.957,0 8.16,3.234 8.16,7.586 m -8.16,-5.41 c -3.235,0 -5.473,2.305 -5.473,5.41 0,3.102 2.238,5.441 5.473,5.441 3.23,0 5.469,-2.339 5.469,-5.441 0,-3.137 -2.239,-5.41 -5.469,-5.41"
         id="path160"
         style="fill:#000000;fill-opacity:1;fill-rule:nonzero;stroke:none" /><path
         d="m 134.664,201.011 0,-7.137 c 0,-1.023 0.445,-1.566 1.313,-1.566 l 1.886,0 c 0.735,0 1.121,0.383 1.121,1.117 0,0.898 -0.449,1.09 -1.632,1.09 l -0.29,0 0,7.07 c 0,3.649 -0.96,5.57 -3.839,5.57 -1.504,0 -2.625,-0.64 -3.489,-1.921 -0.445,1.281 -1.406,1.921 -2.847,1.921 -1.215,0 -2.176,-0.418 -3.008,-1.343 -0.063,0.765 -0.223,0.925 -0.895,0.925 l -2.402,0 c -0.832,0 -1.215,-0.351 -1.215,-1.085 0,-0.801 0.449,-1.122 1.442,-1.122 l 0.703,0 0,-10.015 -0.321,0 c -1.281,0 -1.824,-0.192 -1.824,-1.09 0,-0.734 0.383,-1.117 1.215,-1.117 l 4.16,0 c 0.93,0 1.281,0.222 1.281,1.117 0,0.867 -0.418,1.121 -1.503,1.121 -0.192,0 -0.418,-0.031 -0.672,-0.031 l 0,8.609 c 0.574,1.086 1.343,1.629 2.304,1.629 1.184,0 2.047,-0.926 2.047,-2.527 l 0,-1.215 0,-6.594 0,-0.414 c 0,-1.215 0.063,-1.695 1.09,-1.695 l 1.981,0 c 0.738,0 1.089,0.383 1.089,1.117 0,0.898 -0.449,1.09 -1.632,1.09 l -0.289,0 0,6.496 c 0,2.496 1.089,3.742 2.531,3.742 1.566,0 1.695,-1.375 1.695,-3.742"
         id="path162"
         style="fill:#000000;fill-opacity:1;fill-rule:nonzero;stroke:none" /><path
         d="m 156.379,199.507 c 0,4.32 -3.203,7.582 -8.16,7.582 -4.961,0 -8.196,-3.23 -8.196,-7.582 0,-4.352 3.235,-7.586 8.196,-7.586 4.957,0 8.16,3.234 8.16,7.586 m -8.16,-5.41 c -3.235,0 -5.473,2.305 -5.473,5.41 0,3.102 2.238,5.441 5.473,5.441 3.23,0 5.469,-2.339 5.469,-5.441 0,-3.137 -2.239,-5.41 -5.469,-5.41"
         id="path164"
         style="fill:#000000;fill-opacity:1;fill-rule:nonzero;stroke:none" /><path
         d="m 161.93,199.316 c 0,3.101 1.984,5.152 4.929,5.152 2.911,0 4.93,-2.113 4.93,-4.992 0,-2.883 -2.082,-5.059 -4.961,-5.059 -2.785,0 -4.898,1.953 -4.898,4.899 m 10.242,-7.008 2.976,0 c 0.672,0 1.118,0.414 1.118,1.117 0,0.801 -0.446,1.09 -1.438,1.09 l -0.703,0 0,17.601 c 0,0.446 -0.289,0.637 -0.898,0.637 l -3.2,0 c -0.832,0 -1.25,-0.383 -1.25,-1.117 0,-1.027 0.672,-1.121 2.145,-1.121 l 0.832,0 0,-5.985 c -1.215,1.504 -2.942,2.239 -5.086,2.239 -4.227,0 -7.426,-3.262 -7.426,-7.391 0,-4.383 3.008,-7.457 6.946,-7.457 2.207,0 4.128,0.899 5.374,2.465 l 0,-1.281 c 0,-0.543 0.129,-0.797 0.61,-0.797"
         id="path166"
         style="fill:#000000;fill-opacity:1;fill-rule:nonzero;stroke:none" /><path
         d="m 181.5,200.882 c 0.609,2.594 2.625,4.129 5.379,4.129 2.527,0 4.512,-1.633 4.797,-4.129 l -10.176,0 m -0.062,-2.047 10.496,0 c 1.918,0 2.589,0 2.589,1.473 0,3.488 -2.91,6.847 -7.644,6.847 -4.832,0 -8.16,-3.105 -8.16,-7.585 0,-4.672 3.008,-7.649 7.84,-7.649 2.109,0 4.382,0.512 6.527,1.57 0.926,0.446 1.375,0.926 1.375,1.567 0,0.578 -0.481,1.023 -1.086,1.023 -1.41,0 -3.426,-1.949 -6.594,-1.949 -3.23,0 -5.183,1.695 -5.343,4.703"
         id="path168"
         style="fill:#000000;fill-opacity:1;fill-rule:nonzero;stroke:none" /><path
         d="m 204.91,210.515 0,-16 -4.32,0 c -0.863,0 -1.313,-0.352 -1.313,-1.09 0,-0.734 0.418,-1.117 1.25,-1.117 l 11.52,0 c 0.93,0 1.281,0.222 1.281,1.117 0,0.77 -0.387,1.09 -1.183,1.09 l -4.868,0 0,17.601 c 0,0.383 -0.285,0.637 -0.894,0.637 l -5.153,0 c -0.832,0 -1.246,-0.383 -1.246,-1.117 0,-0.801 0.446,-1.09 1.473,-1.09 0.156,0 0.445,-0.031 0.797,-0.031 l 2.656,0"
         id="path170"
         style="fill:#000000;fill-opacity:1;fill-rule:nonzero;stroke:none" /><path
         d="m 221.695,191.89 9.825,21.152 c 0.097,0.192 0.16,0.383 0.16,0.578 0,0.606 -0.543,1.055 -1.118,1.055 -0.64,0 -0.96,-0.449 -1.41,-1.375 l -9.757,-21.027 c -0.098,-0.223 -0.161,-0.446 -0.161,-0.637 0,-0.609 0.512,-1.09 1.086,-1.09 0.672,0 0.992,0.481 1.375,1.344"
         id="path172"
         style="fill:#000000;fill-opacity:1;fill-rule:nonzero;stroke:none" /><path
         d="m 103.188,158.003 12.96,0 c 0.383,0 0.739,0.352 0.739,0.734 l 0,1.665 c 0,0.386 -0.258,0.64 -0.739,0.64 l -12.96,0 c -0.415,0 -0.672,-0.254 -0.672,-0.64 l 0,-1.665 c 0,-0.445 0.257,-0.734 0.672,-0.734"
         id="path174"
         style="fill:#000000;fill-opacity:1;fill-rule:nonzero;stroke:none" /><path
         d="m 127.91,170.515 0,-16 -4.32,0 c -0.863,0 -1.313,-0.352 -1.313,-1.09 0,-0.734 0.418,-1.117 1.25,-1.117 l 11.52,0 c 0.93,0 1.281,0.222 1.281,1.117 0,0.77 -0.387,1.09 -1.183,1.09 l -4.868,0 0,17.601 c 0,0.383 -0.285,0.637 -0.894,0.637 l -5.153,0 c -0.832,0 -1.246,-0.383 -1.246,-1.117 0,-0.801 0.446,-1.09 1.473,-1.09 0.156,0 0.445,-0.031 0.797,-0.031 l 2.656,0"
         id="path176"
         style="fill:#000000;fill-opacity:1;fill-rule:nonzero;stroke:none" /><path
         d="m 142.328,154.515 -0.32,0 c -1.278,0 -1.824,-0.192 -1.824,-1.09 0,-0.734 0.418,-1.117 1.25,-1.117 l 4.16,0 c 0.926,0 1.246,0.222 1.246,1.117 0,0.867 -0.414,1.121 -1.504,1.121 -0.191,0 -0.414,-0.031 -0.672,-0.031 l 0,6.496 c 0,2.336 2.176,3.742 4.066,3.742 2.047,0 3.293,-1.246 3.293,-3.742 l 0,-6.496 -0.605,0 c -1.121,0 -1.535,-0.223 -1.535,-1.09 0,-0.895 0.316,-1.117 1.246,-1.117 l 4.16,0 c 0.832,0 1.25,0.383 1.25,1.117 0,0.801 -0.48,1.09 -1.473,1.09 l -0.671,0 0,7.07 c 0,3.617 -2.145,5.57 -5.122,5.57 -1.632,0 -3.074,-0.703 -4.578,-2.113 l 0,7.074 c 0,0.383 -0.285,0.637 -0.894,0.637 l -2.367,0 c -0.832,0 -1.25,-0.383 -1.25,-1.117 0,-0.801 0.449,-1.09 1.441,-1.09 0.223,0 0.48,-0.031 0.703,-0.031 l 0,-16"
         id="path178"
         style="fill:#000000;fill-opacity:1;fill-rule:nonzero;stroke:none" /><path
         d="m 166.281,148.308 8.227,16.222 c 1.086,0.032 1.566,0.29 1.566,1.122 0,0.734 -0.414,1.085 -1.246,1.085 l -3.871,0 c -1.027,0 -1.473,-0.16 -1.473,-1.085 0,-0.899 0.543,-1.122 1.887,-1.122 l 0.609,0 -4.351,-8.609 -4.195,8.609 0.578,0 c 1.281,0 1.824,0.223 1.824,1.122 0,0.925 -0.449,1.085 -1.473,1.085 l -4.351,0 c -0.832,0 -1.25,-0.351 -1.25,-1.085 0,-0.899 0.511,-1.122 1.793,-1.122 l 5.726,-11.23 -2.558,-4.992 -3.391,0 c -0.801,0 -1.184,-0.387 -1.184,-1.121 0,-0.864 0.383,-1.121 1.313,-1.121 l 7.168,0 c 0.832,0 1.277,0.386 1.277,1.121 0,0.929 -0.574,1.121 -1.949,1.121 l -0.676,0"
         id="path180"
         style="fill:#000000;fill-opacity:1;fill-rule:nonzero;stroke:none" /><path
         d="m 190.844,148.308 -3.742,0 c -0.801,0 -1.215,-0.387 -1.215,-1.121 0,-0.864 0.383,-1.121 1.308,-1.121 l 6.914,0 c 0.832,0 1.246,0.386 1.246,1.121 0,0.8 -0.476,1.121 -1.468,1.121 l -0.672,0 0,16.222 0.285,0 c 1.312,0 1.855,0.223 1.855,1.122 0,0.734 -0.414,1.085 -1.246,1.085 l -2.367,0 c -0.609,0 -0.898,-0.191 -0.898,-0.64 l 0,-1.504 c -1.406,1.441 -3.133,2.176 -5.117,2.176 -4.098,0 -7.395,-3.071 -7.395,-7.453 0,-4.161 3.008,-7.043 7.106,-7.043 2.207,0 4.128,0.8 5.406,2.273 l 0,-6.238 m -9.789,11.168 c 0,2.816 1.984,4.894 4.925,4.894 2.915,0 4.93,-2.078 4.93,-4.894 0,-2.817 -2.015,-4.899 -4.93,-4.899 -2.878,0 -4.925,1.985 -4.925,4.899"
         id="path182"
         style="fill:#000000;fill-opacity:1;fill-rule:nonzero;stroke:none" /><path
         d="m 202,158.066 0,7.488 0,0.16 c 0,0.703 -0.031,1.023 -0.898,1.023 l -2.368,0 c -0.832,0 -1.246,-0.351 -1.246,-1.085 0,-0.801 0.446,-1.122 1.438,-1.122 l 0.707,0 0,-7.039 c 0,-3.648 1.726,-5.504 5.148,-5.504 1.891,0 3.235,0.735 4.867,2.016 l 0,-1.055 c 0,-0.386 0.286,-0.64 0.895,-0.64 l 2.367,0 c 0.832,0 1.25,0.383 1.25,1.117 0,0.801 -0.449,1.09 -1.441,1.09 l -0.703,0 0,10.719 c 0,0.929 0,1.503 -1.09,1.503 l -3.328,0 c -0.864,0 -1.246,-0.32 -1.246,-1.085 0,-0.77 0.32,-1.122 1.152,-1.122 l 2.144,0 0,-6.464 c 0,-2.305 -2.015,-3.774 -4.128,-3.774 -2.434,0 -3.52,1.215 -3.52,3.774"
         id="path184"
         style="fill:#000000;fill-opacity:1;fill-rule:nonzero;stroke:none" /><path
         d="m 226.656,154.515 0,11.582 c 0,0.387 -0.289,0.64 -0.894,0.64 l -4.578,0 c -0.832,0 -1.246,-0.351 -1.246,-1.085 0,-0.739 0.449,-1.122 1.312,-1.122 l 3.039,0 0,-10.015 -4.769,0 c -0.864,0 -1.309,-0.352 -1.309,-1.09 0,-0.734 0.414,-1.117 1.246,-1.117 l 12.129,0 c 0.926,0 1.277,0.222 1.277,1.117 0,0.77 -0.383,1.09 -1.183,1.09 l -5.024,0 m -2.91,16.734 c 0,-1.277 0.32,-1.535 1.633,-1.535 1.504,0 1.598,0.352 1.598,1.984 0,1.633 -0.161,2.114 -1.598,2.114 -1.441,0 -1.633,-0.481 -1.633,-2.563"
         id="path186"
         style="fill:#000000;fill-opacity:1;fill-rule:nonzero;stroke:none" /><path
         d="m 238.93,159.316 c 0,3.101 1.984,5.152 4.929,5.152 2.911,0 4.93,-2.113 4.93,-4.992 0,-2.883 -2.082,-5.059 -4.961,-5.059 -2.785,0 -4.898,1.953 -4.898,4.899 m 10.242,-7.008 2.976,0 c 0.672,0 1.118,0.414 1.118,1.117 0,0.801 -0.446,1.09 -1.438,1.09 l -0.703,0 0,17.601 c 0,0.446 -0.289,0.637 -0.898,0.637 l -3.2,0 c -0.832,0 -1.25,-0.383 -1.25,-1.117 0,-1.027 0.672,-1.121 2.145,-1.121 l 0.832,0 0,-5.985 c -1.215,1.504 -2.942,2.239 -5.086,2.239 -4.227,0 -7.426,-3.262 -7.426,-7.391 0,-4.383 3.008,-7.457 6.946,-7.457 2.207,0 4.128,0.899 5.374,2.465 l 0,-1.281 c 0,-0.543 0.129,-0.797 0.61,-0.797"
         id="path188"
         style="fill:#000000;fill-opacity:1;fill-rule:nonzero;stroke:none" /><path
         d="m 258.277,152.308 10.305,0 c 0.48,0 0.832,0.351 0.895,1.023 l 0.16,1.215 c 0,0.098 0.031,0.223 0.031,0.32 0,0.832 -0.445,1.282 -1.117,1.282 -0.672,0 -1.09,-0.45 -1.188,-1.379 l -7.133,0 1.918,1.859 c 4.067,4.031 7.395,6.399 7.395,10.109 0,3.266 -2.594,5.793 -6.082,5.793 -2.113,0 -4.191,-0.832 -5.504,-2.113 -0.48,-0.48 -0.512,-0.765 -0.512,-1.375 0,-1.086 0.16,-1.633 0.93,-1.633 1.086,0 1.309,0.93 1.695,1.442 0.703,0.929 2.016,1.504 3.328,1.504 2.016,0 3.422,-1.504 3.422,-3.746 0,-2.622 -2.625,-4.797 -6.718,-8.672 -2.207,-2.11 -3.457,-3.168 -3.457,-4.254 0,-0.961 0.543,-1.375 1.632,-1.375"
         id="path190"
         style="fill:#000000;fill-opacity:1;fill-rule:nonzero;stroke:none" /><path
         d="m 277.43,159.316 c 0,3.101 1.984,5.152 4.929,5.152 2.911,0 4.93,-2.113 4.93,-4.992 0,-2.883 -2.082,-5.059 -4.961,-5.059 -2.785,0 -4.898,1.953 -4.898,4.899 m 10.242,-7.008 2.976,0 c 0.672,0 1.118,0.414 1.118,1.117 0,0.801 -0.446,1.09 -1.438,1.09 l -0.703,0 0,17.601 c 0,0.446 -0.289,0.637 -0.898,0.637 l -3.2,0 c -0.832,0 -1.25,-0.383 -1.25,-1.117 0,-1.027 0.672,-1.121 2.145,-1.121 l 0.832,0 0,-5.985 c -1.215,1.504 -2.942,2.239 -5.086,2.239 -4.227,0 -7.426,-3.262 -7.426,-7.391 0,-4.383 3.008,-7.457 6.946,-7.457 2.207,0 4.128,0.899 5.374,2.465 l 0,-1.281 c 0,-0.543 0.129,-0.797 0.61,-0.797"
         id="path192"
         style="fill:#000000;fill-opacity:1;fill-rule:nonzero;stroke:none" /><path
         d="m 298.184,164.499 0,7.617 c 0,0.446 -0.286,0.637 -0.895,0.637 l -2.367,0 c -0.832,0 -1.25,-0.383 -1.25,-1.117 0,-0.801 0.449,-1.09 1.441,-1.09 0.223,0 0.481,-0.031 0.703,-0.031 l 0,-16 -0.32,0 c -1.277,0 -1.824,-0.192 -1.824,-1.09 0,-0.734 0.418,-1.117 1.25,-1.117 l 2.848,0 c 0.48,0 0.64,0.254 0.64,0.797 l 0,1.25 c 1.055,-1.567 2.688,-2.336 4.863,-2.336 4.192,0 7.391,3.297 7.391,7.359 0,4.129 -3.137,7.359 -7.328,7.359 -2.207,0 -3.969,-0.765 -5.152,-2.238 m 4.867,-10.015 c -2.914,0 -4.93,2.109 -4.93,4.992 0,2.91 2.047,4.992 4.93,4.992 2.91,0 4.926,-2.145 4.926,-4.992 0,-2.977 -2.016,-4.992 -4.926,-4.992"
         id="path194"
         style="fill:#000000;fill-opacity:1;fill-rule:nonzero;stroke:none" /><path
         d="m 322.906,154.515 0,11.582 c 0,0.387 -0.289,0.64 -0.894,0.64 l -4.578,0 c -0.832,0 -1.246,-0.351 -1.246,-1.085 0,-0.739 0.449,-1.122 1.312,-1.122 l 3.039,0 0,-10.015 -4.769,0 c -0.864,0 -1.309,-0.352 -1.309,-1.09 0,-0.734 0.414,-1.117 1.246,-1.117 l 12.129,0 c 0.926,0 1.277,0.222 1.277,1.117 0,0.77 -0.383,1.09 -1.183,1.09 l -5.024,0 m -2.91,16.734 c 0,-1.277 0.32,-1.535 1.633,-1.535 1.504,0 1.598,0.352 1.598,1.984 0,1.633 -0.161,2.114 -1.598,2.114 -1.441,0 -1.633,-0.481 -1.633,-2.563"
         id="path196"
         style="fill:#000000;fill-opacity:1;fill-rule:nonzero;stroke:none" /><path
         d="m 337.195,151.89 9.825,21.152 c 0.097,0.192 0.16,0.383 0.16,0.578 0,0.606 -0.543,1.055 -1.118,1.055 -0.64,0 -0.96,-0.449 -1.41,-1.375 l -9.757,-21.027 c -0.098,-0.223 -0.161,-0.446 -0.161,-0.637 0,-0.609 0.512,-1.09 1.086,-1.09 0.672,0 0.992,0.481 1.375,1.344"
         id="path198"
         style="fill:#000000;fill-opacity:1;fill-rule:nonzero;stroke:none" /><path
         d="m 103.188,118.003 12.96,0 c 0.383,0 0.739,0.352 0.739,0.734 l 0,1.665 c 0,0.386 -0.258,0.64 -0.739,0.64 l -12.96,0 c -0.415,0 -0.672,-0.254 -0.672,-0.64 l 0,-1.665 c 0,-0.445 0.257,-0.734 0.672,-0.734"
         id="path200"
         style="fill:#000000;fill-opacity:1;fill-rule:nonzero;stroke:none" /><path
         d="m 127.91,130.515 0,-16 -4.32,0 c -0.863,0 -1.313,-0.352 -1.313,-1.09 0,-0.734 0.418,-1.117 1.25,-1.117 l 11.52,0 c 0.93,0 1.281,0.222 1.281,1.117 0,0.77 -0.387,1.09 -1.183,1.09 l -4.868,0 0,17.601 c 0,0.383 -0.285,0.637 -0.894,0.637 l -5.153,0 c -0.832,0 -1.246,-0.383 -1.246,-1.117 0,-0.801 0.446,-1.09 1.473,-1.09 0.156,0 0.445,-0.031 0.797,-0.031 l 2.656,0"
         id="path202"
         style="fill:#000000;fill-opacity:1;fill-rule:nonzero;stroke:none" /><path
         d="m 142.328,114.515 -0.32,0 c -1.278,0 -1.824,-0.192 -1.824,-1.09 0,-0.734 0.418,-1.117 1.25,-1.117 l 4.16,0 c 0.926,0 1.246,0.222 1.246,1.117 0,0.867 -0.414,1.121 -1.504,1.121 -0.191,0 -0.414,-0.031 -0.672,-0.031 l 0,6.496 c 0,2.336 2.176,3.742 4.066,3.742 2.047,0 3.293,-1.246 3.293,-3.742 l 0,-6.496 -0.605,0 c -1.121,0 -1.535,-0.223 -1.535,-1.09 0,-0.895 0.316,-1.117 1.246,-1.117 l 4.16,0 c 0.832,0 1.25,0.383 1.25,1.117 0,0.801 -0.48,1.09 -1.473,1.09 l -0.671,0 0,7.07 c 0,3.617 -2.145,5.57 -5.122,5.57 -1.632,0 -3.074,-0.703 -4.578,-2.113 l 0,7.074 c 0,0.383 -0.285,0.637 -0.894,0.637 l -2.367,0 c -0.832,0 -1.25,-0.383 -1.25,-1.117 0,-0.801 0.449,-1.09 1.441,-1.09 0.223,0 0.48,-0.031 0.703,-0.031 l 0,-16"
         id="path204"
         style="fill:#000000;fill-opacity:1;fill-rule:nonzero;stroke:none" /><path
         d="m 166.281,108.308 8.227,16.222 c 1.086,0.032 1.566,0.29 1.566,1.122 0,0.734 -0.414,1.085 -1.246,1.085 l -3.871,0 c -1.027,0 -1.473,-0.16 -1.473,-1.085 0,-0.899 0.543,-1.122 1.887,-1.122 l 0.609,0 -4.351,-8.609 -4.195,8.609 0.578,0 c 1.281,0 1.824,0.223 1.824,1.122 0,0.925 -0.449,1.085 -1.473,1.085 l -4.351,0 c -0.832,0 -1.25,-0.351 -1.25,-1.085 0,-0.899 0.511,-1.122 1.793,-1.122 l 5.726,-11.23 -2.558,-4.992 -3.391,0 c -0.801,0 -1.184,-0.387 -1.184,-1.121 0,-0.864 0.383,-1.121 1.313,-1.121 l 7.168,0 c 0.832,0 1.277,0.386 1.277,1.121 0,0.929 -0.574,1.121 -1.949,1.121 l -0.676,0"
         id="path206"
         style="fill:#000000;fill-opacity:1;fill-rule:nonzero;stroke:none" /><path
         d="m 190.844,108.308 -3.742,0 c -0.801,0 -1.215,-0.387 -1.215,-1.121 0,-0.864 0.383,-1.121 1.308,-1.121 l 6.914,0 c 0.832,0 1.246,0.386 1.246,1.121 0,0.8 -0.476,1.121 -1.468,1.121 l -0.672,0 0,16.222 0.285,0 c 1.312,0 1.855,0.223 1.855,1.122 0,0.734 -0.414,1.085 -1.246,1.085 l -2.367,0 c -0.609,0 -0.898,-0.191 -0.898,-0.64 l 0,-1.504 c -1.406,1.441 -3.133,2.176 -5.117,2.176 -4.098,0 -7.395,-3.071 -7.395,-7.453 0,-4.161 3.008,-7.043 7.106,-7.043 2.207,0 4.128,0.8 5.406,2.273 l 0,-6.238 m -9.789,11.168 c 0,2.816 1.984,4.894 4.925,4.894 2.915,0 4.93,-2.078 4.93,-4.894 0,-2.817 -2.015,-4.899 -4.93,-4.899 -2.878,0 -4.925,1.985 -4.925,4.899"
         id="path208"
         style="fill:#000000;fill-opacity:1;fill-rule:nonzero;stroke:none" /><path
         d="m 202,118.066 0,7.488 0,0.16 c 0,0.703 -0.031,1.023 -0.898,1.023 l -2.368,0 c -0.832,0 -1.246,-0.351 -1.246,-1.085 0,-0.801 0.446,-1.122 1.438,-1.122 l 0.707,0 0,-7.039 c 0,-3.648 1.726,-5.504 5.148,-5.504 1.891,0 3.235,0.735 4.867,2.016 l 0,-1.055 c 0,-0.386 0.286,-0.64 0.895,-0.64 l 2.367,0 c 0.832,0 1.25,0.383 1.25,1.117 0,0.801 -0.449,1.09 -1.441,1.09 l -0.703,0 0,10.719 c 0,0.929 0,1.503 -1.09,1.503 l -3.328,0 c -0.864,0 -1.246,-0.32 -1.246,-1.085 0,-0.77 0.32,-1.122 1.152,-1.122 l 2.144,0 0,-6.464 c 0,-2.305 -2.015,-3.774 -4.128,-3.774 -2.434,0 -3.52,1.215 -3.52,3.774"
         id="path210"
         style="fill:#000000;fill-opacity:1;fill-rule:nonzero;stroke:none" /><path
         d="m 226.656,114.515 0,11.582 c 0,0.387 -0.289,0.64 -0.894,0.64 l -4.578,0 c -0.832,0 -1.246,-0.351 -1.246,-1.085 0,-0.739 0.449,-1.122 1.312,-1.122 l 3.039,0 0,-10.015 -4.769,0 c -0.864,0 -1.309,-0.352 -1.309,-1.09 0,-0.734 0.414,-1.117 1.246,-1.117 l 12.129,0 c 0.926,0 1.277,0.222 1.277,1.117 0,0.77 -0.383,1.09 -1.183,1.09 l -5.024,0 m -2.91,16.734 c 0,-1.277 0.32,-1.535 1.633,-1.535 1.504,0 1.598,0.352 1.598,1.984 0,1.633 -0.161,2.114 -1.598,2.114 -1.441,0 -1.633,-0.481 -1.633,-2.563"
         id="path212"
         style="fill:#000000;fill-opacity:1;fill-rule:nonzero;stroke:none" /><path
         d="m 238.93,119.316 c 0,3.101 1.984,5.152 4.929,5.152 2.911,0 4.93,-2.113 4.93,-4.992 0,-2.883 -2.082,-5.059 -4.961,-5.059 -2.785,0 -4.898,1.953 -4.898,4.899 m 10.242,-7.008 2.976,0 c 0.672,0 1.118,0.414 1.118,1.117 0,0.801 -0.446,1.09 -1.438,1.09 l -0.703,0 0,17.601 c 0,0.446 -0.289,0.637 -0.898,0.637 l -3.2,0 c -0.832,0 -1.25,-0.383 -1.25,-1.117 0,-1.027 0.672,-1.121 2.145,-1.121 l 0.832,0 0,-5.985 c -1.215,1.504 -2.942,2.239 -5.086,2.239 -4.227,0 -7.426,-3.262 -7.426,-7.391 0,-4.383 3.008,-7.457 6.946,-7.457 2.207,0 4.128,0.899 5.374,2.465 l 0,-1.281 c 0,-0.543 0.129,-0.797 0.61,-0.797"
         id="path214"
         style="fill:#000000;fill-opacity:1;fill-rule:nonzero;stroke:none" /><path
         d="m 266.148,123.058 c 2.176,0.769 3.168,2.176 3.168,4.351 0,2.786 -2.304,5.121 -5.664,5.121 -3.168,0 -5.632,-1.793 -5.632,-2.847 0,-0.578 0.449,-0.992 1.027,-0.992 0.957,0 2.141,1.664 4.445,1.664 1.856,0 3.235,-1.375 3.235,-3.391 0,-1.539 -1.09,-2.723 -2.723,-2.977 -1.629,-0.257 -2.109,-0.031 -2.109,-1.183 0,-1.379 0.832,-0.93 2.429,-1.219 1.891,-0.351 3.008,-1.726 3.008,-3.582 0,-2.207 -1.664,-3.808 -4.191,-3.808 -2.496,0 -4.094,1.601 -5.024,1.601 -0.64,0 -1.152,-0.449 -1.152,-1.09 0,-1.406 2.754,-2.91 6.082,-2.91 4.191,0 6.941,2.656 6.941,6.207 0,2.527 -1.375,4.383 -3.84,5.055"
         id="path216"
         style="fill:#000000;fill-opacity:1;fill-rule:nonzero;stroke:none" /><path
         d="m 277.43,119.316 c 0,3.101 1.984,5.152 4.929,5.152 2.911,0 4.93,-2.113 4.93,-4.992 0,-2.883 -2.082,-5.059 -4.961,-5.059 -2.785,0 -4.898,1.953 -4.898,4.899 m 10.242,-7.008 2.976,0 c 0.672,0 1.118,0.414 1.118,1.117 0,0.801 -0.446,1.09 -1.438,1.09 l -0.703,0 0,17.601 c 0,0.446 -0.289,0.637 -0.898,0.637 l -3.2,0 c -0.832,0 -1.25,-0.383 -1.25,-1.117 0,-1.027 0.672,-1.121 2.145,-1.121 l 0.832,0 0,-5.985 c -1.215,1.504 -2.942,2.239 -5.086,2.239 -4.227,0 -7.426,-3.262 -7.426,-7.391 0,-4.383 3.008,-7.457 6.946,-7.457 2.207,0 4.128,0.899 5.374,2.465 l 0,-1.281 c 0,-0.543 0.129,-0.797 0.61,-0.797"
         id="path218"
         style="fill:#000000;fill-opacity:1;fill-rule:nonzero;stroke:none" /><path
         d="m 298.695,111.89 9.825,21.152 c 0.097,0.192 0.16,0.383 0.16,0.578 0,0.606 -0.543,1.055 -1.118,1.055 -0.64,0 -0.96,-0.449 -1.41,-1.375 l -9.757,-21.027 c -0.098,-0.223 -0.161,-0.446 -0.161,-0.637 0,-0.609 0.512,-1.09 1.086,-1.09 0.672,0 0.992,0.481 1.375,1.344"
         id="path220"
         style="fill:#000000;fill-opacity:1;fill-rule:nonzero;stroke:none" /><path
         d="m 64.688,78.003 12.96,0 c 0.383,0 0.739,0.352 0.739,0.734 l 0,1.665 c 0,0.386 -0.258,0.64 -0.739,0.64 l -12.96,0 c -0.415,0 -0.672,-0.254 -0.672,-0.64 l 0,-1.665 c 0,-0.445 0.257,-0.734 0.672,-0.734"
         id="path222"
         style="fill:#000000;fill-opacity:1;fill-rule:nonzero;stroke:none" /><path
         d="m 96.164,81.011 0,-7.137 c 0,-1.023 0.445,-1.566 1.313,-1.566 l 1.886,0 c 0.735,0 1.121,0.383 1.121,1.117 0,0.898 -0.449,1.09 -1.632,1.09 l -0.29,0 0,7.07 c 0,3.649 -0.96,5.57 -3.839,5.57 -1.504,0 -2.625,-0.64 -3.489,-1.921 -0.445,1.281 -1.406,1.921 -2.847,1.921 -1.215,0 -2.176,-0.418 -3.008,-1.343 -0.063,0.765 -0.223,0.925 -0.895,0.925 l -2.402,0 c -0.832,0 -1.215,-0.351 -1.215,-1.085 0,-0.801 0.449,-1.122 1.442,-1.122 l 0.703,0 0,-10.015 -0.321,0 c -1.281,0 -1.824,-0.192 -1.824,-1.09 0,-0.734 0.383,-1.117 1.215,-1.117 l 4.16,0 c 0.93,0 1.281,0.222 1.281,1.117 0,0.867 -0.418,1.121 -1.503,1.121 -0.192,0 -0.418,-0.031 -0.672,-0.031 l 0,8.609 c 0.574,1.086 1.343,1.629 2.304,1.629 1.184,0 2.047,-0.926 2.047,-2.527 l 0,-1.215 0,-6.594 0,-0.414 c 0,-1.215 0.063,-1.695 1.09,-1.695 l 1.981,0 c 0.738,0 1.089,0.383 1.089,1.117 0,0.898 -0.449,1.09 -1.632,1.09 l -0.289,0 0,6.496 c 0,2.496 1.089,3.742 2.531,3.742 1.566,0 1.695,-1.375 1.695,-3.742"
         id="path224"
         style="fill:#000000;fill-opacity:1;fill-rule:nonzero;stroke:none" /><path
         d="m 113.27,74.292 0.16,-0.961 c 0.129,-0.672 0.511,-1.023 1.086,-1.023 l 2.464,0 c 0.832,0 1.25,0.383 1.25,1.117 0,0.93 -0.546,1.09 -1.855,1.09 l -0.801,0 0,7.07 c 0,3.777 -1.855,5.539 -5.855,5.539 -3.524,0 -5.824,-1.121 -5.824,-2.211 0,-0.797 0.48,-1.312 1.054,-1.312 1.215,0 2.496,1.312 4.703,1.312 2.403,0 3.52,-1.117 3.52,-3.519 l 0,-0.094 c -1.277,0.32 -2.496,0.48 -3.711,0.48 -4.641,0 -7.231,-1.953 -7.231,-5.187 0,-2.75 2.047,-4.672 5.184,-4.672 2.145,0 4.16,0.832 5.856,2.371 m -0.098,4.926 0,-1.695 c 0,-1.407 -2.559,-3.2 -5.375,-3.2 -1.824,0 -3.07,1.055 -3.07,2.43 0,1.762 1.824,3.008 5.152,3.008 1.148,0 2.238,-0.191 3.293,-0.543"
         id="path226"
         style="fill:#000000;fill-opacity:1;fill-rule:nonzero;stroke:none" /><path
         d="m 136.008,82.034 0,2.914 c 0,1.344 -0.16,1.918 -1.121,1.918 -0.801,0 -1.215,-0.289 -1.215,-0.992 l 0,-0.062 c -1.731,0.863 -3.297,1.312 -4.93,1.312 -4.48,0 -7.871,-3.297 -7.871,-7.617 0,-4.32 3.359,-7.586 7.902,-7.586 3.778,0 7.297,2.336 7.297,3.809 0,0.64 -0.445,1.09 -1.086,1.09 -0.832,0 -1.441,-0.77 -2.402,-1.411 -1.117,-0.734 -2.398,-1.152 -3.648,-1.152 -3.262,0 -5.344,2.176 -5.344,5.281 0,3.008 2.242,5.153 5.472,5.153 1.856,0 3.329,-0.864 4.29,-2.559 0.48,-0.867 0.8,-1.25 1.472,-1.25 0.766,0 1.184,0.383 1.184,1.152"
         id="path228"
         style="fill:#000000;fill-opacity:1;fill-rule:nonzero;stroke:none" /><path
         d="m 146.68,74.515 0,6.465 c 2.082,2.367 3.84,3.613 5.57,3.613 1.215,0 1.887,-0.957 2.719,-0.957 0.672,0 1.375,0.703 1.375,1.469 0,1.152 -1.153,2.019 -3.102,2.019 -2.496,0 -4.609,-1.219 -6.562,-3.683 l 0,2.656 c 0,0.449 -0.285,0.64 -0.864,0.64 l -3.55,0 c -0.832,0 -1.25,-0.351 -1.25,-1.085 0,-0.801 0.449,-1.122 1.472,-1.122 l 0.801,0 1.055,0 0,-10.015 -2.75,0 c -0.864,0 -1.313,-0.352 -1.313,-1.09 0,-0.734 0.449,-1.117 1.281,-1.117 l 10.208,0 c 0.925,0 1.281,0.222 1.281,1.117 0,0.77 -0.387,1.09 -1.188,1.09 l -5.183,0"
         id="path230"
         style="fill:#000000;fill-opacity:1;fill-rule:nonzero;stroke:none" /><path
         d="m 175.629,79.507 c 0,4.32 -3.203,7.582 -8.16,7.582 -4.961,0 -8.196,-3.23 -8.196,-7.582 0,-4.352 3.235,-7.586 8.196,-7.586 4.957,0 8.16,3.234 8.16,7.586 m -8.16,-5.41 c -3.235,0 -5.473,2.305 -5.473,5.41 0,3.102 2.238,5.441 5.473,5.441 3.23,0 5.469,-2.339 5.469,-5.441 0,-3.137 -2.239,-5.41 -5.469,-5.41"
         id="path232"
         style="fill:#000000;fill-opacity:1;fill-rule:nonzero;stroke:none" /><path
         d="m 183.195,71.89 9.825,21.152 c 0.097,0.192 0.16,0.383 0.16,0.578 0,0.606 -0.543,1.055 -1.118,1.055 -0.64,0 -0.96,-0.449 -1.41,-1.375 l -9.757,-21.027 c -0.098,-0.223 -0.161,-0.446 -0.161,-0.637 0,-0.609 0.512,-1.09 1.086,-1.09 0.672,0 0.992,0.481 1.375,1.344"
         id="path234"
         style="fill:#000000;fill-opacity:1;fill-rule:nonzero;stroke:none" /><path
         d="m 64.688,38.003 12.96,0 c 0.383,0 0.739,0.352 0.739,0.734 l 0,1.665 c 0,0.386 -0.258,0.64 -0.739,0.64 l -12.96,0 c -0.415,0 -0.672,-0.254 -0.672,-0.64 l 0,-1.665 c 0,-0.445 0.257,-0.734 0.672,-0.734"
         id="path236"
         style="fill:#000000;fill-opacity:1;fill-rule:nonzero;stroke:none" /><path
         d="m 83.617,33.425 c 0,-0.992 0.418,-1.504 1.153,-1.504 0.355,0 0.867,0.258 1.601,0.738 1.762,-0.449 3.328,-0.703 4.734,-0.703 3.907,0 6.114,1.949 6.114,4.637 0,3.074 -2.145,4.289 -6.274,4.387 -3.07,0.062 -4.863,0.222 -4.863,1.886 0,1.25 1.184,2.305 3.266,2.305 1.632,0 2.785,-0.383 3.968,-1.441 0.926,-0.832 1.246,-1.633 1.95,-1.633 0.769,0 1.058,0.547 1.058,1.57 l 0,1.824 c 0,1.055 -0.351,1.567 -1.058,1.567 -0.832,0 -1.153,-0.606 -1.598,-0.606 -0.449,0 -1.695,0.703 -3.969,0.703 -3.871,0 -6.015,-1.793 -6.015,-4.386 0,-2.782 2.273,-4.317 6.527,-4.317 l 0.894,0 c 2.372,0 3.524,-0.449 3.524,-2.05 0,-1.407 -1.41,-2.43 -3.684,-2.43 -2.109,0 -3.902,0.765 -4.734,1.855 -0.609,0.801 -0.512,1.664 -1.473,1.664 -0.832,0 -1.121,-0.449 -1.121,-1.281 l 0,-2.785"
         id="path238"
         style="fill:#000000;fill-opacity:1;fill-rule:nonzero;stroke:none" /><path
         d="m 103.828,34.515 -0.32,0 c -1.278,0 -1.824,-0.192 -1.824,-1.09 0,-0.734 0.418,-1.117 1.25,-1.117 l 4.16,0 c 0.926,0 1.246,0.222 1.246,1.117 0,0.867 -0.414,1.121 -1.504,1.121 -0.191,0 -0.414,-0.031 -0.672,-0.031 l 0,6.496 c 0,2.336 2.176,3.742 4.066,3.742 2.047,0 3.293,-1.246 3.293,-3.742 l 0,-6.496 -0.605,0 c -1.121,0 -1.535,-0.223 -1.535,-1.09 0,-0.895 0.316,-1.117 1.246,-1.117 l 4.16,0 c 0.832,0 1.25,0.383 1.25,1.117 0,0.801 -0.48,1.09 -1.473,1.09 l -0.671,0 0,7.07 c 0,3.617 -2.145,5.57 -5.122,5.57 -1.632,0 -3.074,-0.703 -4.578,-2.113 l 0,7.074 c 0,0.383 -0.285,0.637 -0.894,0.637 l -2.367,0 c -0.832,0 -1.25,-0.383 -1.25,-1.117 0,-0.801 0.449,-1.09 1.441,-1.09 0.223,0 0.48,-0.031 0.703,-0.031 l 0,-16"
         id="path240"
         style="fill:#000000;fill-opacity:1;fill-rule:nonzero;stroke:none" /><path
         d="m 132.52,34.292 0.16,-0.961 c 0.129,-0.672 0.511,-1.023 1.086,-1.023 l 2.464,0 c 0.832,0 1.25,0.383 1.25,1.117 0,0.93 -0.546,1.09 -1.855,1.09 l -0.801,0 0,7.07 c 0,3.777 -1.855,5.539 -5.855,5.539 -3.524,0 -5.824,-1.121 -5.824,-2.211 0,-0.797 0.48,-1.312 1.054,-1.312 1.215,0 2.496,1.312 4.703,1.312 2.403,0 3.52,-1.117 3.52,-3.519 l 0,-0.094 c -1.277,0.32 -2.496,0.48 -3.711,0.48 -4.641,0 -7.231,-1.953 -7.231,-5.187 0,-2.75 2.047,-4.672 5.184,-4.672 2.145,0 4.16,0.832 5.856,2.371 m -0.098,4.926 0,-1.695 c 0,-1.407 -2.559,-3.2 -5.375,-3.2 -1.824,0 -3.07,1.055 -3.07,2.43 0,1.762 1.824,3.008 5.152,3.008 1.148,0 2.238,-0.191 3.293,-0.543"
         id="path242"
         style="fill:#000000;fill-opacity:1;fill-rule:nonzero;stroke:none" /><path
         d="m 146.68,34.515 0,6.465 c 2.082,2.367 3.84,3.613 5.57,3.613 1.215,0 1.887,-0.957 2.719,-0.957 0.672,0 1.375,0.703 1.375,1.469 0,1.152 -1.153,2.019 -3.102,2.019 -2.496,0 -4.609,-1.219 -6.562,-3.683 l 0,2.656 c 0,0.449 -0.285,0.64 -0.864,0.64 l -3.55,0 c -0.832,0 -1.25,-0.351 -1.25,-1.085 0,-0.801 0.449,-1.122 1.472,-1.122 l 0.801,0 1.055,0 0,-10.015 -2.75,0 c -0.864,0 -1.313,-0.352 -1.313,-1.09 0,-0.734 0.449,-1.117 1.281,-1.117 l 10.208,0 c 0.925,0 1.281,0.222 1.281,1.117 0,0.77 -0.387,1.09 -1.188,1.09 l -5.183,0"
         id="path244"
         style="fill:#000000;fill-opacity:1;fill-rule:nonzero;stroke:none" /><path
         d="m 162.25,40.882 c 0.609,2.594 2.625,4.129 5.379,4.129 2.527,0 4.512,-1.633 4.797,-4.129 l -10.176,0 m -0.062,-2.047 10.496,0 c 1.918,0 2.589,0 2.589,1.473 0,3.488 -2.91,6.847 -7.644,6.847 -4.832,0 -8.16,-3.105 -8.16,-7.585 0,-4.672 3.008,-7.649 7.84,-7.649 2.109,0 4.382,0.512 6.527,1.57 0.926,0.446 1.375,0.926 1.375,1.567 0,0.578 -0.481,1.023 -1.086,1.023 -1.41,0 -3.426,-1.949 -6.594,-1.949 -3.23,0 -5.183,1.695 -5.343,4.703"
         id="path246"
         style="fill:#000000;fill-opacity:1;fill-rule:nonzero;stroke:none" /><path
         d="m 183.195,31.89 9.825,21.152 c 0.097,0.192 0.16,0.383 0.16,0.578 0,0.606 -0.543,1.055 -1.118,1.055 -0.64,0 -0.96,-0.449 -1.41,-1.375 l -9.757,-21.027 c -0.098,-0.223 -0.161,-0.446 -0.161,-0.637 0,-0.609 0.512,-1.09 1.086,-1.09 0.672,0 0.992,0.481 1.375,1.344"
         id="path248"
         style="fill:#000000;fill-opacity:1;fill-rule:nonzero;stroke:none" /><path
         d="m 65.418,38.655 0,503.957"
         id="path250"
         style="fill:#000000;fill-opacity:1;fill-rule:nonzero;stroke:#000000;stroke-width:2.79999995;stroke-linecap:butt;stroke-linejoin:miter;stroke-miterlimit:4;stroke-opacity:1;stroke-dasharray:none" /><path
         d="m 103.918,119.136 0,67.269"
         id="path252"
         style="fill:#000000;fill-opacity:1;fill-rule:nonzero;stroke:#000000;stroke-width:2.79999995;stroke-linecap:butt;stroke-linejoin:miter;stroke-miterlimit:4;stroke-opacity:1;stroke-dasharray:none" /><path
         d="m 103.914,318.683 0,143.691"
         id="path254"
         style="fill:#000000;fill-opacity:1;fill-rule:nonzero;stroke:#000000;stroke-width:2.79999995;stroke-linecap:butt;stroke-linejoin:miter;stroke-miterlimit:4;stroke-opacity:1;stroke-dasharray:none" /></g></g></svg>